<svg width="47" height="47" viewBox="0 0 47 47" fill="none" xmlns="http://www.w3.org/2000/svg">
<g clip-path="url(#clip0)">
<path d="M18.0505 46.0293L15.981 39.7264C15.0242 39.2803 14.0916 38.7347 13.1939 38.0991L6.75965 39.416C6.16565 39.5302 5.58513 39.2682 5.29221 38.7562L1.16398 31.607C0.86565 31.0937 0.932802 30.45 1.32526 30.0066L5.67925 25.0923C5.56944 23.9562 5.56733 23.0354 5.67925 21.8778L1.32526 16.9635C0.932894 16.52 0.86565 15.8763 1.16398 15.363L5.29221 8.21388C5.58513 7.70189 6.16565 7.43181 6.75965 7.5541L13.1939 8.871C14.0916 8.23535 15.0242 7.69115 15.9783 7.24632L18.0505 0.940776C18.2387 0.378971 18.7654 0 19.3567 0H27.6131C28.2044 0 28.7312 0.378971 28.9193 0.940684L30.9915 7.24622C31.9456 7.69106 32.8782 8.23525 33.7759 8.87091L40.2102 7.55401C40.8014 7.43172 41.3847 7.7018 41.6776 8.21379L45.8059 15.363C46.1042 15.8763 46.037 16.52 45.6446 16.9634L41.2906 21.8777C41.4004 23.0138 41.4025 23.9346 41.2906 25.0922L45.6446 30.0065C46.0369 30.45 46.1042 31.0937 45.8059 31.607L41.6776 38.7561C41.3847 39.2681 40.8014 39.5302 40.2102 39.4159L33.7759 38.099C32.8756 38.7359 31.943 39.2816 30.9835 39.7277L28.9194 46.0279L18.0505 46.0293Z" fill="#4086F4"/>
<path d="M45.8058 15.363L41.6776 8.21379C41.3846 7.7018 40.8014 7.43172 40.2101 7.55401L33.7759 8.87091C32.8782 8.23525 31.9456 7.69106 30.9914 7.24622L28.9193 0.940684C28.7312 0.378971 28.2043 0 27.6131 0H23.4849V46.0287L28.9193 46.028L30.9834 39.7278C31.9429 39.2817 32.8755 38.736 33.7758 38.0991L40.21 39.416C40.8013 39.5302 41.3845 39.2682 41.6775 38.7562L45.8057 31.607C46.104 31.0937 46.0369 30.45 45.6444 30.0066L41.2904 25.0923C41.4023 23.9347 41.4003 23.0138 41.2904 21.8778L45.6444 16.9635C46.0369 16.52 46.1041 15.8763 45.8058 15.363Z" fill="#4175DF"/>
<path d="M27.613 46.9699H19.3565C18.5959 46.9699 17.9805 46.3544 17.9805 45.5938V33.6684C17.9805 33.2047 18.2143 32.772 18.6014 32.5181C18.9911 32.264 19.4802 32.2224 19.9049 32.4065C22.0765 33.3499 24.8931 33.3499 27.0648 32.4065C27.4894 32.2238 27.9812 32.2654 28.3683 32.5181C28.7553 32.7721 28.9892 33.2047 28.9892 33.6684V45.5938C28.9891 46.3544 28.3736 46.9699 27.613 46.9699Z" fill="#E3E7EA"/>
<path d="M27.6131 46.9701C28.3737 46.9701 28.9892 46.3546 28.9892 45.594V33.6686C28.9892 33.2049 28.7553 32.7722 28.3683 32.5183C27.9812 32.2656 27.4894 32.224 27.0648 32.4067C25.979 32.8784 24.7319 33.1142 23.4849 33.1142V46.9701H27.6131Z" fill="#BABAC0"/>
<path d="M18.8082 34.9304C14.1398 33.0557 11.1001 28.558 11.1001 23.485C11.1001 18.4404 14.1344 13.9332 18.8324 12.0021C19.2571 11.8246 19.7382 11.8757 20.1226 12.131C20.5042 12.3864 20.7326 12.8151 20.7326 13.2747V22.7486L23.4848 24.5829L26.2369 22.7486V13.2747C26.2369 12.8151 26.4653 12.3864 26.847 12.131C27.2286 11.8757 27.7097 11.8234 28.1371 12.0021C32.8351 13.9332 35.8694 18.4404 35.8694 23.485C35.8694 28.558 32.8297 33.0557 28.1264 34.9452C25.3443 36.1546 21.7538 36.2101 18.8082 34.9304Z" fill="#FFF5F5"/>
<path d="M28.1265 34.9452C32.8298 33.0557 35.8695 28.558 35.8695 23.485C35.8695 18.4404 32.8352 13.9332 28.1372 12.0021C27.7099 11.8234 27.2288 11.8757 26.8471 12.131C26.4653 12.3864 26.237 12.8151 26.237 13.2747V22.7486L23.4849 24.5829V35.867C25.1134 35.8677 26.7228 35.5554 28.1265 34.9452Z" fill="#E3E7EA"/>
</g>
<defs>
<clipPath id="clip0">
<rect width="46.97" height="46.97" fill="white"/>
</clipPath>
</defs>
</svg>
