<svg width="18" height="18" viewBox="0 0 18 18" fill="none" xmlns="http://www.w3.org/2000/svg">
<path d="M17.9707 13.242C17.2831 10.3117 15.1427 6.22914 8.66897 5.36666V2.78276C8.66897 2.24411 8.34277 1.75876 7.84479 1.55341C7.34681 1.34766 6.77379 1.46297 6.39349 1.84446L0.515259 7.75192C-0.17149 8.44222 -0.171885 9.55745 0.514864 10.2477L6.39349 16.1552C6.773 16.5367 7.3472 16.652 7.84518 16.4463C8.34316 16.2405 8.66936 15.7552 8.66936 15.2169V12.7167C10.8781 12.7195 14.0623 13.0101 16.3275 14.42C16.7038 14.6545 17.1836 14.6391 17.5438 14.3801C17.9031 14.1226 18.0722 13.6732 17.9707 13.242Z" fill="#FABF24"/>
</svg>
