<svg xmlns="http://www.w3.org/2000/svg" width="36.688" height="36.688" viewBox="0 0 36.688 36.688"><defs><style>.a{fill:#af2822;}</style></defs><path class="a" d="M13.758,16.051H2.293A2.166,2.166,0,0,1,0,13.758V2.293A2.166,2.166,0,0,1,2.293,0H13.758a2.166,2.166,0,0,1,2.293,2.293V13.758A2.166,2.166,0,0,1,13.758,16.051ZM4.586,11.465h6.879V4.586H4.586Z"/><path class="a" d="M13.758,25.051H2.293A2.166,2.166,0,0,1,0,22.758V11.293A2.166,2.166,0,0,1,2.293,9H13.758a2.166,2.166,0,0,1,2.293,2.293V22.758A2.166,2.166,0,0,1,13.758,25.051ZM4.586,20.465h6.879V13.586H4.586Z" transform="translate(0 11.637)"/><path class="a" d="M22.758,16.051H11.293A2.166,2.166,0,0,1,9,13.758V2.293A2.166,2.166,0,0,1,11.293,0H22.758a2.166,2.166,0,0,1,2.293,2.293V13.758A2.166,2.166,0,0,1,22.758,16.051Zm-9.172-4.586h6.879V4.586H13.586Z" transform="translate(11.637)"/><rect class="a" width="2.293" height="2.293" transform="translate(6.879 6.879)"/><rect class="a" width="2.293" height="2.293" transform="translate(6.879 27.516)"/><rect class="a" width="16.051" height="4.586" transform="translate(20.637 32.102)"/><path class="a" d="M22.465,18.172H17.879V13.586H11V9h9.172a2.166,2.166,0,0,1,2.293,2.293Z" transform="translate(14.223 11.637)"/><rect class="a" width="2.293" height="2.293" transform="translate(27.516 27.516)"/><rect class="a" width="2.293" height="2.293" transform="translate(27.516 6.879)"/></svg>