<svg xmlns="http://www.w3.org/2000/svg" width="44.702" height="42.471" viewBox="0 0 44.702 42.471"><defs><style>.a{fill:#da8924;}</style></defs><g transform="translate(0 -0.643)"><g transform="translate(6.541 20.565)"><path class="a" d="M39.156,14.9v17H6.546v-17h32.61m2.775-2.775H3.771V34.677H41.932V12.128Z" transform="translate(-3.771 -12.128)"/></g><g transform="translate(6.541 20.565)"><path class="a" d="M19.771,12.128l3.906,3.906a2.1,2.1,0,0,0-.087.43,2.25,2.25,0,0,0,2.251,2.25,2.205,2.205,0,0,0,.428-.085l3.908,3.906V12.128Z" transform="translate(7.982 -12.128)"/><ellipse class="a" cx="2.251" cy="2.251" rx="2.251" ry="2.251" transform="translate(28.103 9.023)"/><ellipse class="a" cx="6.81" cy="5.922" rx="6.81" ry="5.922" transform="translate(12.27 5.353)"/><ellipse class="a" cx="2.25" cy="2.25" rx="2.25" ry="2.25" transform="translate(5.556 9.025)"/><path class="a" d="M3.771,22.535l3.906-3.906a2.1,2.1,0,0,0,.43.087,2.25,2.25,0,0,0,2.25-2.251,2.086,2.086,0,0,0-.087-.428l3.908-3.908H3.771Z" transform="translate(-3.771 -12.128)"/><path class="a" d="M10.359,25.2a2.25,2.25,0,0,0-2.251-2.25,2.205,2.205,0,0,0-.428.085L3.771,19.128V29.535H14.178l-3.906-3.906A2.126,2.126,0,0,0,10.359,25.2Z" transform="translate(-3.771 -6.986)"/><path class="a" d="M25.842,22.948a2.25,2.25,0,0,0-2.25,2.251,2.086,2.086,0,0,0,.087.428l-3.908,3.908H30.178V19.128l-3.906,3.906A2.1,2.1,0,0,0,25.842,22.948Z" transform="translate(7.982 -6.986)"/></g><g transform="translate(0 0.643)"><ellipse class="a" cx="2.25" cy="2.25" rx="2.25" ry="2.25" transform="translate(29.793 11.387)"/><path class="a" d="M3.939,20.565a2.6,2.6,0,0,1,2.6-2.6H7.963l.064-.222,20.081-11,1.535.448a2.055,2.055,0,0,0,.134.418,2.25,2.25,0,0,0,3.056.893,1.985,1.985,0,0,0,.331-.281l1.539.451,3.5,6.387L37.753,16.6a2.062,2.062,0,0,0-.416.13,2.231,2.231,0,0,0-1.025,1.237h6.645L38.471,9.77h0l-5-9.127-9.131,5h0L9.129,13.973,0,18.972l3.939,7.193Z" transform="translate(0 -0.643)"/><path class="a" d="M12.49,9.034a7.339,7.339,0,0,0-3.209,3.459H21.827a5.147,5.147,0,0,0-.519-1.535C19.735,8.089,15.789,7.228,12.49,9.034Z" transform="translate(6.818 4.827)"/></g></g></svg>