<svg width="24" height="24" viewBox="0 0 24 24" fill="none" xmlns="http://www.w3.org/2000/svg">
<path d="M20 2H4C2.9 2 2 2.9 2 4V22L6 18H20C21.1 18 22 17.1 22 16V4C22 2.9 21.1 2 20 2Z" fill="#FABF24"/>
<path d="M7.99925 10.5C7.9992 10.6969 7.96036 10.8919 7.88495 11.0739C7.80955 11.2558 7.69904 11.4211 7.55975 11.5603C7.42047 11.6995 7.25512 11.8099 7.07316 11.8852C6.8912 11.9606 6.69618 11.9993 6.49925 11.9992C6.30232 11.9992 6.10732 11.9604 5.9254 11.885C5.74347 11.8095 5.57818 11.699 5.43896 11.5598C5.29975 11.4205 5.18933 11.2551 5.11401 11.0732C5.03869 10.8912 4.99995 10.6962 5 10.4993C5.0001 10.1015 5.15819 9.72013 5.43949 9.43897C5.7208 9.1578 6.10227 8.9999 6.5 9C6.89772 9.0001 7.27912 9.15819 7.56028 9.4395C7.84145 9.7208 7.99935 10.1023 7.99925 10.5ZM16.9948 9.00075C16.7978 9.0008 16.6028 9.03964 16.4209 9.11505C16.239 9.19045 16.0737 9.30096 15.9345 9.44025C15.7952 9.57953 15.6848 9.74488 15.6095 9.92684C15.5342 10.1088 15.4955 10.3038 15.4955 10.5007C15.4955 10.6977 15.5344 10.8927 15.6098 11.0746C15.6852 11.2565 15.7957 11.4218 15.935 11.561C16.0743 11.7003 16.2396 11.8107 16.4216 11.886C16.6036 11.9613 16.7986 12 16.9955 12C17.3932 11.9999 17.7746 11.8418 18.0558 11.5605C18.3369 11.2792 18.4948 10.8977 18.4947 10.5C18.4946 10.1023 18.3366 9.72088 18.0553 9.43971C17.7739 9.15855 17.3925 9.00065 16.9948 9.00075ZM11.7474 9.00075C11.5504 9.0008 11.3554 9.03964 11.1735 9.11505C10.9916 9.19045 10.8263 9.30096 10.6871 9.44025C10.5479 9.57953 10.4375 9.74488 10.3621 9.92684C10.2868 10.1088 10.2481 10.3038 10.2481 10.5007C10.2482 10.6977 10.287 10.8927 10.3624 11.0746C10.4378 11.2565 10.5483 11.4218 10.6876 11.561C10.8269 11.7003 10.9923 11.8107 11.1742 11.886C11.3562 11.9613 11.5512 12 11.7481 12C12.1459 11.9999 12.5272 11.8418 12.8084 11.5605C13.0896 11.2792 13.2475 10.8977 13.2474 10.5C13.2473 10.1023 13.0892 9.72088 12.8079 9.43971C12.5266 9.15855 12.1451 9.00065 11.7474 9.00075Z" fill="white"/>
<rect x="0.5" y="0.5" width="23" height="23" stroke="white"/>
<rect x="0.5" y="0.5" width="23" height="23" stroke="url(#paint0_linear)"/>
<defs>
<linearGradient id="paint0_linear" x1="12" y1="0" x2="12" y2="24" gradientUnits="userSpaceOnUse">
<stop stop-color="white"/>
<stop offset="1" stop-color="white" stop-opacity="0"/>
</linearGradient>
</defs>
</svg>
