<svg width="18" height="18" viewBox="0 0 18 18" fill="none" xmlns="http://www.w3.org/2000/svg">
<g clip-path="url(#clip0)">
<path d="M5.22 10.9799V5.3999H1.8C0.81 5.3999 0 6.2099 0 7.1999V12.5999C0 13.5899 0.81 14.3999 1.8 14.3999H2.7V17.0999L5.4 14.3999H9.9C10.89 14.3999 11.7 13.5899 11.7 12.5999V10.9619C11.6408 10.9746 11.5805 10.9809 11.52 10.9808H5.22V10.9799ZM16.2 0.899902H8.1C7.11 0.899902 6.3 1.7099 6.3 2.6999V9.8999H12.6L15.3 12.5999V9.8999H16.2C17.19 9.8999 18 9.0908 18 8.0999V2.6999C18 1.7099 17.19 0.899902 16.2 0.899902Z" fill="#FABF24"/>
</g>
<defs>
<clipPath id="clip0">
<rect width="18" height="18" fill="white"/>
</clipPath>
</defs>
</svg>
