<svg width="47" height="48" viewBox="0 0 47 48" fill="none" xmlns="http://www.w3.org/2000/svg">
<g clip-path="url(#clip0)">
<path d="M12.4752 18.4573C12.3306 18.4573 12.1867 18.414 12.0634 18.331C11.8623 18.1938 11.7413 17.967 11.7413 17.7234V16.9895H10.2735C9.8676 16.9895 9.53955 16.6614 9.53955 16.2556V6.71779C9.53955 6.31194 9.8676 5.98389 10.2735 5.98389H21.2776C21.6834 5.98389 22.0115 6.31194 22.0115 6.71779C22.0115 7.12364 21.6834 7.45169 21.2776 7.45169H11.0074V15.5217H12.4752C12.881 15.5217 13.2091 15.8497 13.2091 16.2556V16.6394L15.8724 15.5738C15.959 15.5393 16.0515 15.5217 16.1447 15.5217H16.1454L21.279 15.5305C21.6842 15.5312 22.0122 15.86 22.0115 16.2658C22.0107 16.671 21.6827 16.9983 21.2776 16.9983C21.2776 16.9983 21.2768 16.9983 21.2761 16.9983L16.2848 16.9895L12.7474 18.4052C12.6601 18.4404 12.5676 18.4573 12.4752 18.4573Z" fill="#B7B7B7"/>
<path d="M21.2871 1.57544V6.72009V16.2608V19.2038L32.2956 19.1891L36.699 20.6569V19.1891H38.9007V1.57544H21.2871Z" fill="url(#paint0_linear)"/>
<path d="M21.2868 6.71997V16.2607H21.2795L16.1495 16.2534L12.48 17.7212V16.2534H10.2783V6.71997H21.2795H21.2868Z" fill="#B7B7B7"/>
<path d="M43.2965 47.0777V47.1577H35.9575V47.0777L37.4253 41.9404H39.627C41.6599 41.9404 43.2965 43.5844 43.2965 45.6099V47.0777Z" fill="#E6E9ED"/>
<path d="M39.627 41.9404H37.4253C39.4575 41.9419 41.0926 43.5844 41.0926 45.6099V47.0777V47.1577H43.2965V47.0777V45.6099C43.2965 43.5851 41.6599 41.9404 39.627 41.9404Z" fill="#CCD1D9"/>
<path d="M41.095 30.2263H27.8921V24.3264C27.8921 23.5192 28.5526 22.8586 29.3599 22.8586H39.6419C40.4499 22.8586 41.1097 23.5192 41.1097 24.3264V30.2263H41.095Z" fill="#E6E9ED"/>
<path d="M39.6419 22.8586H37.438C38.246 22.8586 38.9058 23.5192 38.9058 24.3264V30.2263H41.095H41.1097V24.3264C41.1097 23.5199 40.4492 22.8586 39.6419 22.8586Z" fill="#CCD1D9"/>
<path d="M34.4893 39.7382C35.5454 39.7382 36.5442 39.4887 37.4249 39.0476V41.9399L35.9571 42.6738L34.4893 41.9399L33.0215 42.6738L31.5537 41.9399V39.0476C32.4344 39.4887 33.4325 39.7382 34.4893 39.7382Z" fill="#FABF24"/>
<path d="M33.0216 47.0777V47.1577H25.6826V47.0777V45.6099C25.6826 43.5844 27.3266 41.9404 29.3521 41.9404H31.5538L33.0216 47.0777Z" fill="#E6E9ED"/>
<path d="M41.095 30.2266V33.1335C41.095 35.7235 39.5978 37.97 37.4255 39.0481C36.5448 39.4899 35.546 39.7387 34.4899 39.7387C33.4331 39.7387 32.435 39.4891 31.5543 39.0481C29.3819 37.97 27.8848 35.7242 27.8848 33.1335V33.1035V30.2266H27.8921H41.095Z" fill="#EAC6BB"/>
<path d="M38.8907 30.2266V33.1335C38.8907 35.7235 37.3936 37.97 35.2212 39.0481C34.6547 39.3321 34.036 39.5251 33.3872 39.6359C33.7468 39.6961 34.1123 39.7394 34.4895 39.7394C35.5456 39.7394 36.5445 39.4899 37.4251 39.0488C39.5975 37.9707 41.0946 35.725 41.0946 33.1343V30.2273H38.8907V30.2266Z" fill="#D3B1A9"/>
<path d="M33.0215 47.0777L31.5537 41.9404L33.0215 42.6743L34.4893 41.9404L35.9571 42.6743L37.4249 41.9404L35.9571 47.0777V47.1585H33.0215V47.0777Z" fill="#F2994A"/>
<path d="M19.0852 31.0338V33.2142C19.0852 35.8041 17.5881 38.0506 15.4157 39.1302C14.535 39.5705 13.5296 39.8193 12.4801 39.8193C11.4306 39.8193 10.4252 39.5698 9.54451 39.1302C7.3795 38.0579 5.88968 35.8276 5.875 33.2516V33.2142V31.0338L8.0767 29.5447C8.0767 29.5447 10.2857 30.2786 12.8471 30.2786C15.4084 30.2786 16.8835 29.5447 16.8835 29.5447L19.0852 31.0338Z" fill="#EAC6BB"/>
<path d="M16.8832 29.5447L16.881 29.5461V33.2142C16.881 35.8041 15.3838 38.0506 13.2115 39.1302C12.6456 39.4127 12.0255 39.6057 11.3774 39.7166C11.7378 39.7782 12.104 39.82 12.4798 39.82C13.5292 39.82 14.5347 39.5705 15.4154 39.1309C17.5877 38.0513 19.0849 35.8056 19.0849 33.2149V31.0345L16.8832 29.5447Z" fill="#D3B1A9"/>
<path d="M21.287 45.6903V47.1581H3.67334V45.6903C3.67334 43.6647 5.31728 42.0208 7.34285 42.0208H9.54455L11.0124 42.7547L12.4802 42.0208L13.948 42.7547L15.4158 42.0208H17.6175C19.643 42.0208 21.287 43.6647 21.287 45.6903Z" fill="#F2994A"/>
<path d="M17.6177 42.0208H15.416C17.4401 42.0222 19.0833 43.6647 19.0833 45.6903V47.1581H21.2872V45.6903C21.2872 43.6647 19.6433 42.0208 17.6177 42.0208Z" fill="#E98831"/>
<path d="M12.48 39.8195C13.5295 39.8195 14.535 39.57 15.4156 39.1304V42.0212L13.9478 42.7551L12.48 42.0212L11.0122 42.7551L9.54443 42.0212V39.1304C10.4251 39.57 11.4306 39.8195 12.48 39.8195Z" fill="#FABF24"/>
<path d="M19.0852 28.8107V31.0337L16.8835 29.5446C16.8835 29.5446 15.4084 30.2785 12.8471 30.2785C10.2857 30.2785 8.0767 29.5446 8.0767 29.5446L5.875 31.0337V28.8107C5.875 25.5668 8.50237 22.9395 11.7462 22.9395H16.1496V25.8751C17.7715 25.8751 19.0852 27.1895 19.0852 28.8107Z" fill="#965353"/>
<path d="M16.1495 28.0768C16.5546 28.0768 16.8834 28.4063 16.8834 28.8107V29.5446L19.0851 31.0337V28.8107C19.0851 27.1895 17.7714 25.8751 16.1495 25.8751V22.9395H13.9478V25.8751C13.9478 27.0919 14.9334 28.0768 16.1495 28.0768Z" fill="#844747"/>
<path d="M36.6959 21.3947C36.6181 21.3947 36.5396 21.3822 36.464 21.3565L32.1729 19.9269L21.284 19.9357H21.2832C21.0887 19.9357 20.9016 19.8587 20.7643 19.7207C20.6271 19.5827 20.5493 19.397 20.5493 19.2018V1.5757C20.5493 1.16985 20.8774 0.841797 21.2832 0.841797H38.8976C39.3034 0.841797 39.6315 1.16985 39.6315 1.5757V19.193C39.6315 19.5989 39.3034 19.9269 38.8976 19.9269H37.4305L37.4298 20.6615C37.4298 20.8971 37.316 21.1188 37.1245 21.2567C36.9983 21.3477 36.8478 21.3947 36.6959 21.3947ZM32.2917 18.4591C32.3703 18.4591 32.4488 18.4723 32.5237 18.4973L35.9627 19.6436L35.9634 19.193C35.9642 18.7879 36.2922 18.4598 36.6974 18.4598H38.1637V2.3096H22.0171V18.4672L32.2917 18.4591Z" fill="url(#paint1_linear)"/>
<path d="M34.4888 28.7401C34.0829 28.7401 33.7549 28.412 33.7549 28.0062V25.0618C33.7549 24.6559 34.0829 24.3279 34.4888 24.3279C34.8946 24.3279 35.2227 24.6559 35.2227 25.0618V28.0062C35.2227 28.412 34.8946 28.7401 34.4888 28.7401Z" fill="#ED5565"/>
<path d="M35.9571 27.2771H33.02C32.6142 27.2771 32.2861 26.9491 32.2861 26.5432C32.2861 26.1374 32.6142 25.8093 33.02 25.8093H35.9571C36.363 25.8093 36.691 26.1374 36.691 26.5432C36.691 26.9491 36.363 27.2771 35.9571 27.2771Z" fill="#ED5565"/>
<path d="M31.735 6.83887H29.235V9.75012H26.3184V12.2501H29.235V15.1614H31.735V12.2501H34.6517V9.75012H31.735V6.83887Z" fill="white"/>
</g>
<defs>
<linearGradient id="paint0_linear" x1="33.9722" y1="-47.2731" x2="53.6331" y2="-44.3034" gradientUnits="userSpaceOnUse">
<stop stop-color="#FABF24"/>
<stop offset="1" stop-color="#DA8924"/>
</linearGradient>
<linearGradient id="paint1_linear" x1="34.292" y1="-51.7737" x2="55.5866" y2="-48.5386" gradientUnits="userSpaceOnUse">
<stop stop-color="#FABF24"/>
<stop offset="1" stop-color="#DA8924"/>
</linearGradient>
<clipPath id="clip0">
<rect width="46.9697" height="46.9697" fill="white" transform="translate(0 0.515137)"/>
</clipPath>
</defs>
</svg>
