<svg width="23" height="23" viewBox="0 0 23 23" fill="none" xmlns="http://www.w3.org/2000/svg">
<g clip-path="url(#clip0)">
<path d="M5.5105 16.2917H12.698C13.0947 16.2917 13.4167 15.9697 13.4167 15.5729C13.4167 15.1762 13.0947 14.8542 12.698 14.8542H5.5105C5.11375 14.8542 4.79175 15.1762 4.79175 15.5729C4.79175 15.9697 5.11375 16.2917 5.5105 16.2917Z" fill="#27AE60"/>
<path d="M5.5105 20.125H12.698C13.0947 20.125 13.4167 19.803 13.4167 19.4062C13.4167 19.0095 13.0947 18.6875 12.698 18.6875H5.5105C5.11375 18.6875 4.79175 19.0095 4.79175 19.4062C4.79175 19.803 5.11375 20.125 5.5105 20.125Z" fill="#27AE60"/>
<path d="M5.5105 12.9375H12.698C13.0947 12.9375 13.4167 12.6155 13.4167 12.2188C13.4167 11.822 13.0947 11.5 12.698 11.5H5.5105C5.11375 11.5 4.79175 11.822 4.79175 12.2188C4.79175 12.6155 5.11375 12.9375 5.5105 12.9375Z" fill="#27AE60"/>
<path d="M5.5105 9.10419H12.698C13.0947 9.10419 13.4167 8.78219 13.4167 8.38544C13.4167 7.98869 13.0947 7.66669 12.698 7.66669H5.5105C5.11375 7.66669 4.79175 7.98869 4.79175 8.38544C4.79175 8.78219 5.11375 9.10419 5.5105 9.10419Z" fill="#27AE60"/>
<path d="M19.4063 20.125C20.8601 20.125 22.0417 18.9434 22.0417 17.4896V2.63542C22.0417 1.18163 20.8601 0 19.4063 0H8.3855C7.44633 0 6.57425 0.506 6.11137 1.3225C5.91492 1.6675 6.03662 2.10642 6.38162 2.30192C6.72662 2.49646 7.1665 2.37571 7.36104 2.03167C7.57187 1.65887 7.9552 1.4375 8.38454 1.4375H19.4063C20.0666 1.4375 20.6042 1.97512 20.6042 2.63542V17.4896C20.6042 18.1499 20.0666 18.6875 19.4063 18.6875C19.0096 18.6875 18.6876 19.0095 18.6876 19.4062C18.6876 19.803 19.0096 20.125 19.4063 20.125Z" fill="#27AE60"/>
<path d="M3.59375 23H14.6146C16.0684 23 17.25 21.8184 17.25 20.3646V6.46879C17.25 5.015 16.0684 3.83337 14.6146 3.83337H3.59375C2.13996 3.83337 0.958334 5.015 0.958334 6.46879V20.3646C0.958334 21.8184 2.13996 23 3.59375 23ZM14.6146 5.27087C15.2749 5.27087 15.8125 5.8085 15.8125 6.46879V20.3646C15.8125 21.0249 15.2749 21.5625 14.6146 21.5625H3.59375C2.93346 21.5625 2.39583 21.0249 2.39583 20.3646V6.46879C2.39583 5.8085 2.93346 5.27087 3.59375 5.27087H14.6146Z" fill="#27AE60"/>
</g>
<defs>
<clipPath id="clip0">
<rect width="23" height="23" fill="white" transform="matrix(-1 0 0 1 23 0)"/>
</clipPath>
</defs>
</svg>
