<svg xmlns="http://www.w3.org/2000/svg" width="33.125" height="18.574" viewBox="0 0 33.125 18.574"><defs><style>.a{fill:#fff;}</style></defs><g transform="translate(0 -134.412)"><g transform="translate(0 134.412)"><path class="a" d="M12.274,147.453a2.767,2.767,0,1,0,2.765,2.769A2.766,2.766,0,0,0,12.274,147.453Zm0,4.151a1.382,1.382,0,1,1,1.382-1.382A1.384,1.384,0,0,1,12.274,151.6Zm20.851-6.2v2.952a1.333,1.333,0,0,1-1.333,1.333H30.365a3.659,3.659,0,0,0-7.24,0H15.893a3.656,3.656,0,0,0-7.236,0H6.87a1.333,1.333,0,0,1-1.333-1.333v-2.952H33.125Zm-6.379,2.045a2.767,2.767,0,1,0,2.765,2.769A2.769,2.769,0,0,0,26.746,147.453Zm0,4.151a1.382,1.382,0,1,1,1.382-1.382A1.384,1.384,0,0,1,26.746,151.6Zm5.854-9.169-5.24-5.183a1.781,1.781,0,0,0-1.249-.516H23.466v-.991a1.332,1.332,0,0,0-1.333-1.333H6.869a1.334,1.334,0,0,0-1.333,1.333v.209l-5.411.624,9.588,1.249L0,138.791l9.678,1.376L0,141.007l5.536,1.044v2.62H33.124V143.7A1.786,1.786,0,0,0,32.6,142.435Zm-2.285.173H25.243a.209.209,0,0,1-.209-.209v-3.916a.209.209,0,0,1,.209-.209h.965a.225.225,0,0,1,.147.058l4.1,3.916A.209.209,0,0,1,30.315,142.608Z" transform="translate(0 -134.412)"/></g></g></svg>