<svg xmlns="http://www.w3.org/2000/svg" width="70" height="70" viewBox="0 0 70 70">
	<defs><style>.a{fill:#da8924;}</style></defs>
  <g>
    <circle id="Ellipse_137" data-name="Ellipse 137" cx="35" cy="35" r="35" fill="#fef1d4"/>    
  </g>
  <g style="transform: translate(15px, -27px) scale(2.3);"><path class="a" d="M14.5,22.8l-1.619-2.031a.806.806,0,0,0-.63-.3H3.886a.806.806,0,0,0-.63.3L1.636,22.8a1.66,1.66,0,0,0-.308.906V25.2a1.044,1.044,0,0,1,.542-.432,1.13,1.13,0,0,1,.842-1.006,1.153,1.153,0,0,1,.3-.04,1.13,1.13,0,0,1,.941.5,1.074,1.074,0,0,1,.184-.016,1.05,1.05,0,0,1,.525.142l.9-.233a1.362,1.362,0,0,1,1.662.976L8.976,31.85A1.363,1.363,0,0,1,8,33.513l-.784.2H13.8a1.008,1.008,0,0,0,1.008-1.008V23.684A1.648,1.648,0,0,0,14.5,22.8ZM2.166,22.788l.536-.673H6.36l.361-.594H3.175l.4-.5a.4.4,0,0,1,.315-.152h8.368a.4.4,0,0,1,.315.152l.4.5H9.355l.2.594h3.881l.536.673Zm.164,2.482-.226.059a.451.451,0,0,0-.323.55l0,.009a.451.451,0,0,0,.55.323l1.918-.5a.451.451,0,0,0,.323-.55l0-.009a.451.451,0,0,0-.55-.323l-.226.059a.226.226,0,0,1-.276-.162l0-.007a.525.525,0,0,0-.64-.376l-.012,0a.525.525,0,0,0-.376.64l0,.007A.226.226,0,0,1,2.329,25.269Zm.618-.631a.228.228,0,1,1-.163.278A.228.228,0,0,1,2.947,24.638Zm2.826,6.947a.152.152,0,0,1-.109.185l-2.79.726a.152.152,0,0,1-.185-.109l-.038-.147a.152.152,0,0,1,.109-.185l2.79-.726a.152.152,0,0,1,.185.109Zm.34-2.911.038.147a.152.152,0,0,1-.109.185L2.225,30a.152.152,0,0,1-.185-.109L2,29.744a.152.152,0,0,1,.109-.185l3.818-.993A.152.152,0,0,1,6.114,28.675Zm-.414-.99-3.818.993A.152.152,0,0,1,1.7,28.57l-.038-.147a.152.152,0,0,1,.109-.185l3.818-.993a.152.152,0,0,1,.185.109l.038.147A.152.152,0,0,1,5.7,27.685Zm-.085,2.687-3.084.8a.152.152,0,0,1-.185-.109l-.038-.147a.152.152,0,0,1,.109-.185l3.084-.8a.152.152,0,0,1,.185.109l.038.147A.152.152,0,0,1,5.615,30.372ZM8.391,32,6.633,25.247a.759.759,0,0,0-.925-.543l-.9.233A.761.761,0,0,1,4.326,26l-1.89.492a.773.773,0,0,1-.931-.475.782.782,0,0,1-.041-.213l-.9.233a.759.759,0,0,0-.543.925l1.757,6.755a.759.759,0,0,0,.925.543l5.14-1.337A.759.759,0,0,0,8.391,32ZM2.517,33.53.989,27.656l5.14-1.337,1.528,5.874Z"/></g>
</svg>
