<svg width="47" height="47" viewBox="0 0 47 47" fill="none" xmlns="http://www.w3.org/2000/svg">
<g clip-path="url(#clip0)">
<path d="M40.9984 16.0796H4.18741C3.27865 16.0796 2.54199 16.8162 2.54199 17.725V22.145H42.6439V17.725C42.6438 16.8163 41.9072 16.0796 40.9984 16.0796Z" fill="#FFB125"/>
<path d="M27.6345 6.94174L24.3009 40.689C24.2171 41.5368 23.462 42.1561 22.6143 42.0724L5.72343 40.4038C4.87567 40.3201 4.25635 39.565 4.34011 38.7172L7.67369 4.97001C7.75745 4.12226 8.51255 3.50293 9.3603 3.58669L26.2512 5.25522C27.0988 5.33889 27.7181 6.09399 27.6345 6.94174Z" fill="#B6FA4C"/>
<path d="M26.251 5.25498L9.36019 3.58644C8.51243 3.50269 7.75734 4.12201 7.67358 4.96977L7.37451 7.9975C7.62789 7.86879 7.91916 7.80723 8.22291 7.83723L25.1138 9.50576C25.9615 9.58952 26.5808 10.3446 26.4971 11.1924L23.4626 41.912C23.9162 41.6816 24.247 41.2329 24.3007 40.689L27.6343 6.94168C27.7181 6.09383 27.0987 5.33874 26.251 5.25498Z" fill="#A8E83A"/>
<path d="M9.4638 9.75505L7.03191 34.3746C6.99714 34.7269 7.163 35.0704 7.46354 35.2577C8.29166 35.774 8.93291 36.5486 9.28527 37.458C9.41196 37.7849 9.71452 38.0103 10.0633 38.0448L18.8195 38.9097C19.1682 38.9442 19.5091 38.7822 19.6972 38.4865C20.2207 37.6637 21.0011 37.0295 21.9142 36.6852C22.2456 36.5602 22.4755 36.2559 22.5103 35.9036L24.9422 11.2841C24.9769 10.9317 24.8111 10.5882 24.5105 10.4009C23.6824 9.88459 23.0412 9.11004 22.6888 8.20064C22.5621 7.87387 22.2595 7.64837 21.9108 7.61388L13.1546 6.74897C12.8058 6.71448 12.4649 6.8764 12.2769 7.17216C11.7534 7.99496 10.973 8.62915 10.0598 8.97344C9.72855 9.09839 9.49866 9.40268 9.4638 9.75505Z" fill="#77DD00"/>
<path d="M24.511 10.4009C23.6828 9.88459 23.0416 9.11004 22.6892 8.20064C22.5625 7.87377 22.26 7.64837 21.9112 7.61388L13.1551 6.74897C12.8063 6.71448 12.4654 6.8764 12.2772 7.17216C11.7537 7.99496 10.9733 8.62915 10.0602 8.97344C9.72881 9.09839 9.49892 9.40268 9.46415 9.75505L9.37158 10.6922L20.7171 11.778C21.0659 11.8125 21.3686 12.0379 21.4952 12.3647C21.8475 13.274 22.4888 14.0487 23.3169 14.565C23.6174 14.7523 23.7833 15.0958 23.7485 15.4481L21.6393 36.8006C21.7297 36.7595 21.8213 36.7205 21.9146 36.6853C22.246 36.5603 22.4758 36.256 22.5106 35.9037L24.9425 11.2841C24.9774 10.9317 24.8114 10.5882 24.511 10.4009Z" fill="#73CC00"/>
<path d="M41.9562 11.9694L22.8591 39.9925C22.3794 40.6965 21.4199 40.8783 20.716 40.3986L6.69009 30.8403C5.98619 30.3606 5.80436 29.401 6.28406 28.6971L25.3812 0.673981C25.8609 -0.0299273 26.8205 -0.211753 27.5244 0.267947L41.5503 9.82625C42.2542 10.306 42.4359 11.2654 41.9562 11.9694Z" fill="#B6FA4C"/>
<path d="M41.55 9.82627L27.5242 0.267971C26.8203 -0.211728 25.8607 -0.0299946 25.381 0.674005L23.7475 3.07103C23.8892 3.11534 24.027 3.18066 24.1562 3.26864L38.1821 12.8269C38.886 13.3066 39.0678 14.2662 38.5881 14.9701L21.1245 40.5963C21.7557 40.7937 22.4673 40.5675 22.859 39.9927L41.9561 11.9695C42.4357 11.2655 42.2539 10.306 41.55 9.82627Z" fill="#A8E83A"/>
<path d="M24.6595 5.73202L10.7277 26.1756C10.5282 26.4683 10.5093 26.8492 10.6833 27.1576C11.1628 28.0075 11.3544 28.9946 11.2279 29.9617C11.1825 30.3093 11.34 30.6522 11.6296 30.8495L18.9006 35.8045C19.1903 36.0019 19.567 36.0231 19.8739 35.8536C20.7277 35.3823 21.7165 35.1996 22.6829 35.3349C23.0336 35.384 23.3812 35.2272 23.5807 34.9345L37.5125 14.491C37.7119 14.1984 37.7308 13.8175 37.5568 13.509C37.0773 12.6591 36.8857 11.672 37.0122 10.705C37.0576 10.3575 36.9001 10.0145 36.6104 9.81721L29.3394 4.86215C29.0498 4.66473 28.6731 4.64354 28.3662 4.81298C27.5124 5.28433 26.5236 5.46698 25.5572 5.33167C25.2065 5.28241 24.8589 5.43937 24.6595 5.73202Z" fill="#77DD00"/>
<path d="M37.5568 13.509C37.0773 12.6591 36.8857 11.6719 37.0121 10.7049C37.0575 10.3574 36.9 10.0145 36.6104 9.81709L29.3394 4.86212C29.0498 4.66479 28.673 4.64351 28.3662 4.81295C27.5124 5.2843 26.5236 5.46695 25.5571 5.33155C25.2064 5.28247 24.8588 5.43934 24.6594 5.73198L24.0788 6.58396L33.1658 12.7093C33.4554 12.9067 33.613 13.2496 33.5675 13.5971C33.4411 14.5641 33.6328 15.5512 34.1122 16.4011C34.2861 16.7096 34.2672 17.0906 34.0678 17.3831L21.8604 35.2968C22.134 35.2847 22.4093 35.2967 22.683 35.335C23.0337 35.3842 23.3813 35.2272 23.5807 34.9346L37.5125 14.491C37.7119 14.1983 37.7308 13.8174 37.5568 13.509Z" fill="#73CC00"/>
<path d="M26.2538 23.429C29.0095 23.429 31.2434 21.1951 31.2434 18.4394C31.2434 15.6836 29.0095 13.4497 26.2538 13.4497C23.4981 13.4497 21.2642 15.6836 21.2642 18.4394C21.2642 21.1951 23.4981 23.429 26.2538 23.429Z" fill="#B6FA4C"/>
<path d="M41.5685 46.97H3.12895C1.81837 46.97 0.755859 45.9076 0.755859 44.5969V21.1126C0.755859 19.802 1.81828 18.7395 3.12895 18.7395H41.5685C42.8791 18.7395 43.9416 19.8019 43.9416 21.1126V44.5969C43.9416 45.9076 42.8791 46.97 41.5685 46.97Z" fill="#FABF24"/>
<path d="M41.5687 18.7395H37.2515C38.562 18.7395 39.6245 19.802 39.6245 21.1126V44.5969C39.6245 45.9075 38.562 46.97 37.2515 46.97H41.5687C42.8792 46.97 43.9418 45.9076 43.9418 44.5969V21.1126C43.9418 19.802 42.8792 18.7395 41.5687 18.7395Z" fill="#FF901D"/>
<path d="M45.3543 28.3186H36.7027C34.1974 28.3186 32.1665 30.3495 32.1665 32.8548C32.1665 35.3601 34.1974 37.391 36.7027 37.391H45.3543C45.8292 37.391 46.2141 37.006 46.2141 36.5312V29.1784C46.2141 28.7036 45.8292 28.3186 45.3543 28.3186Z" fill="#F2994A"/>
<path d="M45.3539 28.3186H41.0214C41.4963 28.3186 41.8812 28.7035 41.8812 29.1784V35.3717C41.8812 35.8781 41.4707 36.2886 40.9643 36.2886H36.7022C34.3836 36.2886 32.4726 34.5487 32.2005 32.3035C32.1786 32.4843 32.166 32.668 32.166 32.8547C32.166 35.36 34.1969 37.3909 36.7022 37.3909H41.0213H45.3539C45.8287 37.3909 46.2136 37.0059 46.2136 36.5311V35.4289V29.1784C46.2137 28.7036 45.8288 28.3186 45.3539 28.3186Z" fill="#E38E42"/>
<path d="M41.5685 18.7395H3.12895C1.81837 18.7395 0.755859 19.802 0.755859 21.1126V23.7132H43.9416V21.1126C43.9416 19.802 42.8791 18.7395 41.5685 18.7395Z" fill="#F2994A"/>
<path d="M43.5363 19.7856C43.451 19.6594 43.3538 19.5418 43.2465 19.4345C43.2452 19.4332 43.2439 19.4321 43.2426 19.4308C43.1363 19.3249 43.0201 19.229 42.8952 19.1446C42.8636 19.1234 42.8315 19.1027 42.7989 19.0829C42.7504 19.0535 42.7004 19.0262 42.6496 19.0002C42.6168 18.9833 42.5835 18.9672 42.5497 18.9518C42.2506 18.8157 41.9185 18.7393 41.5684 18.7393H37.2515C38.5619 18.7393 39.6243 19.8018 39.6243 21.1123V23.7129H43.9415V21.1123C43.9415 20.7027 43.8377 20.3174 43.6551 19.9812C43.6187 19.9141 43.5789 19.8487 43.5363 19.7856Z" fill="#E38E42"/>
<path d="M3.12895 46.97H41.5685C42.8791 46.97 43.9416 45.9075 43.9416 44.5969V41.9963H0.755859V44.5969C0.755859 45.9075 1.81828 46.97 3.12895 46.97Z" fill="#F2994A"/>
<path d="M39.6244 41.9963V44.5969C39.6244 44.5983 39.6244 44.5997 39.6244 44.601C39.624 44.8201 39.4405 44.9951 39.2214 44.9951H3.12895C1.81837 44.9951 0.755859 43.9326 0.755859 42.622V44.5968C0.755859 45.9076 1.81828 46.97 3.12895 46.97H37.2514H41.5686C41.6154 46.97 41.6619 46.9683 41.708 46.9656C41.7224 46.9648 41.7367 46.9634 41.751 46.9623C41.7832 46.9598 41.8153 46.9569 41.8471 46.9531C41.8629 46.9513 41.8786 46.9493 41.8944 46.9472C41.9261 46.9429 41.9574 46.9377 41.9886 46.9322C42.0025 46.9298 42.0164 46.9275 42.0302 46.9248C42.0743 46.9161 42.1182 46.9065 42.1614 46.8953C42.1614 46.8953 42.1615 46.8953 42.1616 46.8953C42.1806 46.8905 42.1991 46.8847 42.2179 46.8794C42.3117 46.8527 42.4035 46.8211 42.4923 46.7836C42.5278 46.7686 42.5628 46.7528 42.5974 46.7361C42.632 46.7194 42.6661 46.702 42.6997 46.6837L42.6998 46.6836C42.7669 46.6471 42.8322 46.6075 42.8953 46.5649L42.8954 46.5648L42.8955 46.5647C42.9492 46.5284 43.001 46.4896 43.0513 46.4491C43.0537 46.4472 43.0562 46.4454 43.0585 46.4434C43.1096 46.4022 43.1588 46.3587 43.2063 46.3134C43.2622 46.26 43.3155 46.204 43.3659 46.1455V46.1454C43.4448 46.0538 43.517 45.9563 43.5814 45.8534C43.5831 45.8506 43.585 45.8479 43.5867 45.8451C43.6104 45.8069 43.6333 45.7682 43.6549 45.7285C43.6549 45.7284 43.655 45.7283 43.6551 45.7282V45.7281C43.7124 45.6225 43.7618 45.5118 43.8028 45.3973C43.8074 45.3842 43.8117 45.3709 43.8162 45.3578C43.8261 45.3285 43.8355 45.299 43.8443 45.2693C43.8487 45.2542 43.853 45.239 43.8573 45.2238C43.8654 45.1939 43.8729 45.1637 43.8799 45.1332C43.8831 45.1194 43.8866 45.1055 43.8895 45.0916C43.8988 45.0478 43.9073 45.0037 43.914 44.9591C43.914 44.9588 43.9141 44.9587 43.9141 44.9584C43.9141 44.9583 43.9141 44.9581 43.9141 44.958C43.9221 44.9059 43.9277 44.853 43.9322 44.7998C43.9333 44.7863 43.9343 44.7728 43.9353 44.7593C43.939 44.7056 43.9415 44.6516 43.9415 44.5969V42.6221V41.9964L39.6244 41.9963Z" fill="#E38E42"/>
<path d="M36.864 34.9615C38.0273 34.9615 38.9703 34.0185 38.9703 32.8552C38.9703 31.692 38.0273 30.749 36.864 30.749C35.7008 30.749 34.7578 31.692 34.7578 32.8552C34.7578 34.0185 35.7008 34.9615 36.864 34.9615Z" fill="#F2F2F2"/>
</g>
<defs>
<clipPath id="clip0">
<rect width="46.97" height="46.97" fill="white"/>
</clipPath>
</defs>
</svg>
