<svg width="46" height="46" viewBox="0 0 46 46" fill="none" xmlns="http://www.w3.org/2000/svg">
<rect width="46" height="46" rx="23" fill="#FABF24"/>
<path d="M16.8049 20.5802C16.9989 20.717 17.5836 21.1235 18.559 21.7995C19.5345 22.4754 20.2817 22.9959 20.8008 23.3609C20.8579 23.4009 20.979 23.4879 21.1644 23.6219C21.3498 23.7561 21.5038 23.8645 21.6264 23.9471C21.7491 24.0298 21.8974 24.1225 22.0714 24.2252C22.2454 24.3277 22.4095 24.4049 22.5635 24.4559C22.7175 24.5074 22.8601 24.5329 22.9913 24.5329H22.9999H23.0085C23.1397 24.5329 23.2824 24.5074 23.4364 24.4559C23.5904 24.4049 23.7545 24.3276 23.9284 24.2252C24.1023 24.1224 24.2506 24.0298 24.3733 23.9471C24.496 23.8645 24.6499 23.7561 24.8353 23.6219C25.0207 23.4877 25.142 23.4009 25.199 23.3609C25.7237 22.9959 27.0587 22.0689 29.2034 20.58C29.6198 20.2892 29.9677 19.9383 30.2472 19.5276C30.5269 19.117 30.6666 18.6863 30.6666 18.2357C30.6666 17.8592 30.531 17.5369 30.26 17.2688C29.9891 17.0006 29.6681 16.8666 29.2975 16.8666H16.7022C16.263 16.8666 15.925 17.0149 15.6883 17.3115C15.4516 17.6081 15.3333 17.9789 15.3333 18.4238C15.3333 18.7832 15.4902 19.1726 15.8039 19.5919C16.1175 20.0112 16.4513 20.3406 16.8049 20.5802Z" fill="white"/>
<path d="M29.8108 21.4957C27.94 22.7619 26.5194 23.746 25.5498 24.4477C25.2246 24.6872 24.9609 24.8742 24.7583 25.0081C24.5558 25.1422 24.2864 25.2791 23.9497 25.4188C23.6132 25.5587 23.2996 25.6284 23.0087 25.6284H22.9999H22.9913C22.7004 25.6284 22.3866 25.5587 22.0501 25.4188C21.7136 25.2791 21.4441 25.1422 21.2415 25.0081C21.0391 24.8742 20.7752 24.6872 20.4501 24.4477C19.68 23.883 18.2625 22.8989 16.1975 21.4957C15.8723 21.279 15.5842 21.0307 15.3333 20.7513V27.545C15.3333 27.9217 15.4672 28.2438 15.7354 28.5119C16.0035 28.7801 16.3258 28.9142 16.7023 28.9142H29.2976C29.674 28.9142 29.9963 28.7801 30.2645 28.5119C30.5326 28.2437 30.6666 27.9217 30.6666 27.545V20.7513C30.4213 21.025 30.1361 21.2733 29.8108 21.4957Z" fill="white"/>
</svg>
