<svg width="18" height="18" viewBox="0 0 18 18" fill="none" xmlns="http://www.w3.org/2000/svg">
<g clip-path="url(#clip0)">
<path d="M8.99981 6.10327C7.40158 6.10327 6.10303 7.40183 6.10303 9.00005C6.10303 10.5983 7.40158 11.8968 8.99981 11.8968C10.598 11.8968 11.8966 10.5983 11.8966 9.00005C11.8966 7.40183 10.598 6.10327 8.99981 6.10327ZM8.78005 8.14101C8.42045 8.14101 8.12079 8.44067 8.12079 8.80027H7.16185C7.18183 7.90127 7.90103 7.18207 8.78005 7.18207V8.14101Z" fill="#FABF24"/>
<path d="M17.7902 8.40077C16.8113 7.18213 13.3152 3.20654 9 3.20654C4.68479 3.20654 1.18868 7.18213 0.209767 8.40077C-0.0699223 8.74039 -0.0699223 9.23984 0.209767 9.59944C1.18868 10.8181 4.68479 14.7937 9 14.7937C13.3152 14.7937 16.8113 10.8181 17.7902 9.59944C18.0699 9.25982 18.0699 8.76037 17.7902 8.40077ZM9 13.1954C6.68258 13.1954 4.80466 11.3175 4.80466 9.00011C4.80466 6.68268 6.68258 4.80477 9 4.80477C11.3174 4.80477 13.1953 6.68268 13.1953 9.00011C13.1953 11.3175 11.3174 13.1954 9 13.1954Z" fill="#FABF24"/>
</g>
<defs>
<clipPath id="clip0">
<rect width="18" height="18" fill="white"/>
</clipPath>
</defs>
</svg>
