<svg width="26" height="26" viewBox="0 0 26 26" fill="none" xmlns="http://www.w3.org/2000/svg">
<path d="M0.25 21.5898C0.25 22.369 0.8875 23.0065 1.66667 23.0065H8.75V20.1732H1.66667C0.8875 20.1732 0.25 20.8107 0.25 21.5898ZM0.25 4.58984C0.25 5.36901 0.8875 6.00651 1.66667 6.00651H14.4167V3.17318H1.66667C0.8875 3.17318 0.25 3.81068 0.25 4.58984ZM14.4167 24.4232V23.0065H24.3333C25.1125 23.0065 25.75 22.369 25.75 21.5898C25.75 20.8107 25.1125 20.1732 24.3333 20.1732H14.4167V18.7565C14.4167 17.9773 13.7792 17.3398 13 17.3398C12.2208 17.3398 11.5833 17.9773 11.5833 18.7565V24.4232C11.5833 25.2023 12.2208 25.8398 13 25.8398C13.7792 25.8398 14.4167 25.2023 14.4167 24.4232ZM5.91667 10.2565V11.6732H1.66667C0.8875 11.6732 0.25 12.3107 0.25 13.0898C0.25 13.869 0.8875 14.5065 1.66667 14.5065H5.91667V15.9232C5.91667 16.7023 6.55417 17.3398 7.33333 17.3398C8.1125 17.3398 8.75 16.7023 8.75 15.9232V10.2565C8.75 9.47734 8.1125 8.83984 7.33333 8.83984C6.55417 8.83984 5.91667 9.47734 5.91667 10.2565ZM25.75 13.0898C25.75 12.3107 25.1125 11.6732 24.3333 11.6732H11.5833V14.5065H24.3333C25.1125 14.5065 25.75 13.869 25.75 13.0898ZM18.6667 8.83984C19.4458 8.83984 20.0833 8.20234 20.0833 7.42318V6.00651H24.3333C25.1125 6.00651 25.75 5.36901 25.75 4.58984C25.75 3.81068 25.1125 3.17318 24.3333 3.17318H20.0833V1.75651C20.0833 0.977344 19.4458 0.339844 18.6667 0.339844C17.8875 0.339844 17.25 0.977344 17.25 1.75651V7.42318C17.25 8.20234 17.8875 8.83984 18.6667 8.83984Z" fill="#3B823E"/>
</svg>
