<svg width="15" height="15" viewBox="0 0 15 15" fill="none" xmlns="http://www.w3.org/2000/svg">
<path d="M14.7068 3.76033L7.64622 1.26919C7.55162 1.23579 7.44841 1.23579 7.35381 1.26919L0.293262 3.76033C0.117715 3.82227 0.000234726 3.98809 3.51182e-07 4.17424C-0.000234024 4.36039 0.116866 4.52647 0.292266 4.58882L7.35281 7.09889C7.40042 7.11582 7.45022 7.12429 7.5 7.12429C7.5498 7.12429 7.59958 7.11582 7.64719 7.09889L14.7077 4.58882C14.8831 4.52647 15.0002 4.36039 15 4.17424C14.9998 3.98809 14.8823 3.82227 14.7068 3.76033Z" fill="#DA8924"/>
<path d="M13.9446 9.62617V5.79297L13.0657 6.10542V9.62617C12.8009 9.77855 12.6226 10.064 12.6226 10.3914C12.6226 10.7188 12.8009 11.0043 13.0657 11.1567V13.3163C13.0657 13.559 13.2624 13.7558 13.5051 13.7558C13.7478 13.7558 13.9446 13.559 13.9446 13.3163V11.1567C14.2093 11.0044 14.3877 10.7188 14.3877 10.3915C14.3877 10.0641 14.2093 9.77855 13.9446 9.62617Z" fill="#DA8924"/>
<path d="M7.49993 8.00337C7.34908 8.00337 7.20052 7.97773 7.05834 7.9272L3.08911 6.51611V8.44994C3.08911 8.92306 3.58268 9.32316 4.55609 9.6391C5.40456 9.91449 6.45005 10.0662 7.49993 10.0662C8.54981 10.0662 9.59527 9.91449 10.4438 9.6391C11.4172 9.32316 11.9108 8.92306 11.9108 8.44994V6.51611L7.94155 7.9272C7.79935 7.97773 7.65078 8.00337 7.49993 8.00337Z" fill="#DA8924"/>
</svg>
