<svg xmlns="http://www.w3.org/2000/svg" width="24" height="24" viewBox="0 0 24 24"><defs><style>.a,.b{fill:none;}.b{stroke:#fff;stroke-linecap:round;stroke-linejoin:round;stroke-miterlimit:10;stroke-width:1.5px;}.c{fill:#a8a8a8;}</style></defs><path class="a" d="M0,0H24V24H0Z"/><g transform="translate(2.233 2.5)"><path class="b" d="M21,1V5.472h4.472" transform="translate(-7.938)"/><line class="b" x2="7.826" transform="translate(6.354 12.738)"/><line class="b" x2="7.826" transform="translate(6.354 9.385)"/><line class="b" x2="3.354" transform="translate(6.354 6.031)"/><g transform="translate(0.701 8.13)"><path class="c" d="M11.395,213.3a.737.737,0,0,1-.684-.406l-.76-1.691-1.6,4.329a.8.8,0,0,1-1.443,0l-1.139-2.976-.684.609a.7.7,0,0,1-.532.135H0V216a.682.682,0,0,0,.76.676h3.8v3.382a.682.682,0,0,0,.76.676h7.6a.682.682,0,0,0,.76-.676v-3.382h3.8a.682.682,0,0,0,.76-.676V213.3H11.395Z" transform="translate(0 -211.2)"/></g><g transform="translate(0.701 -0.565)"><path class="c" d="M17.472,4.058h-3.8V.676A.681.681,0,0,0,12.914,0h-7.6a.681.681,0,0,0-.76.676V4.058H.76A.681.681,0,0,0,0,4.734V7.44H4.254L5.546,6.29a.81.81,0,0,1,1.291.271l.76,2.1,1.6-4.193A.8.8,0,0,1,10.635,4.4L11.927,7.44h6.305V4.734A.681.681,0,0,0,17.472,4.058Z" transform="translate(0 1)"/></g></g></svg>