<svg xmlns="http://www.w3.org/2000/svg" width="44" height="44.002" viewBox="0 0 44 44.002"><defs><style>.a{fill:#af2822;}</style></defs><g transform="translate(-0.008)"><path class="a" d="M22.009,0a22,22,0,1,0,22,21.989A22,22,0,0,0,22.009,0Zm1.568,34.231a2.591,2.591,0,0,1-1.774.683,2.679,2.679,0,0,1-1.816-.674,2.363,2.363,0,0,1-.777-1.885,2.429,2.429,0,0,1,.751-1.808,2.535,2.535,0,0,1,1.842-.733,2.5,2.5,0,0,1,2.543,2.541A2.384,2.384,0,0,1,23.577,34.231Zm6.371-15.8a7.778,7.778,0,0,1-1.4,1.885q-.809.794-2.909,2.669a12.039,12.039,0,0,0-.929.929,3.786,3.786,0,0,0-.52.734,3.535,3.535,0,0,0-.264.666q-.093.332-.282,1.169a1.9,1.9,0,0,1-2.029,1.774,2.078,2.078,0,0,1-1.493-.58,2.279,2.279,0,0,1-.6-1.723,6.349,6.349,0,0,1,.444-2.482,6.273,6.273,0,0,1,1.176-1.843,26.972,26.972,0,0,1,1.979-1.885q1.092-.955,1.578-1.441a4.878,4.878,0,0,0,.818-1.083,2.608,2.608,0,0,0,.332-1.3,3.009,3.009,0,0,0-1.015-2.3,3.707,3.707,0,0,0-2.619-.938,3.623,3.623,0,0,0-2.764.947,7.554,7.554,0,0,0-1.5,2.789q-.581,1.928-2.2,1.928a2.166,2.166,0,0,1-1.613-.673,2.061,2.061,0,0,1-.656-1.458,6.172,6.172,0,0,1,1.04-3.284,8.007,8.007,0,0,1,3.037-2.755,9.55,9.55,0,0,1,4.656-1.092A9.935,9.935,0,0,1,26.577,10,7.078,7.078,0,0,1,29.5,12.484,6.09,6.09,0,0,1,30.535,15.9,5.253,5.253,0,0,1,29.948,18.435Z"/></g></svg>