<svg width="15" height="15" viewBox="0 0 15 15" fill="none" xmlns="http://www.w3.org/2000/svg">
<g clip-path="url(#clip0)">
<path d="M14.7495 5.75767L7.87498 0.758047C7.62501 0.57056 7.37501 0.57056 7.12504 0.758047L0.25051 5.75767C-0.249464 6.07016 0.0630233 6.8826 0.625484 6.8826H1.87541V13.7571C1.87541 14.1321 2.12538 14.3821 2.50035 14.3821H12.4996C12.8746 14.3821 13.1246 14.1321 13.1246 13.7571V6.8826H14.3745C14.937 6.8826 15.2495 6.07016 14.7495 5.75767ZM7.50001 13.1322C5.43765 13.1322 3.75027 11.4448 3.75027 9.38244C3.75027 7.32008 5.43765 5.6327 7.50001 5.6327C9.56236 5.6327 11.2497 7.32008 11.2497 9.38244C11.2497 11.4448 9.56236 13.1322 7.50001 13.1322Z" fill="#DA8924"/>
<path d="M8.43748 8.44518V6.57031H6.56261V8.44518H4.68774V10.32H6.56261V12.1949H8.43748V10.32H10.3123V8.44518H8.43748Z" fill="#DA8924"/>
</g>
<defs>
<clipPath id="clip0">
<rect width="15" height="15" fill="white"/>
</clipPath>
</defs>
</svg>
