<svg width="20" height="20" viewBox="0 0 20 20" fill="none" xmlns="http://www.w3.org/2000/svg">
<g clip-path="url(#clip0)">
<path d="M19.4153 5.98233C19.0914 4.98261 18.648 4.26831 17.7013 4.26831H2.34239C1.39572 4.26831 0.908938 5.0435 0.628374 5.98233C0.628374 5.98233 0 7.42774 0 10.2849C0 13.1418 0.628374 14.0174 0.628374 14.0174C0.921266 14.9757 1.3961 15.7315 2.34239 15.7315H17.7009C18.6476 15.7315 19.1153 14.9858 19.415 14.0174C19.415 14.0174 20.028 12.9131 19.9989 10.2849C19.9839 7.34181 19.4153 5.98233 19.4153 5.98233ZM5.94863 5.48546C7.19081 5.48546 7.62865 6.46089 7.62865 7.66459C7.62865 8.86754 6.87625 9.84298 5.94863 9.84298C5.02101 9.84298 4.26861 8.86754 4.26861 7.66459C4.26861 6.46089 4.74082 5.48546 5.94863 5.48546ZM9.37816 12.3146C9.0438 14.7964 3.06267 14.7022 2.51835 12.3146C2.46381 12.0767 2.33006 11.8118 2.33866 11.4445C2.35024 10.9283 2.63939 10.4445 2.95508 10.0668C3.35594 9.58819 4.05156 9.74622 4.57271 10.0899C4.91865 10.3178 5.37742 11.6355 5.94863 11.6298C6.51947 11.6355 6.97824 10.3178 7.32418 10.0899C7.84571 9.74622 8.54095 9.58857 8.94181 10.0671C9.25787 10.4445 9.54665 10.9283 9.55861 11.4445C9.56645 11.8118 9.41067 12.0726 9.37816 12.3146ZM10.3883 7.73221C10.3883 7.42288 10.639 7.17183 10.9487 7.17183H16.8017C17.1114 7.17183 17.3621 7.42288 17.3621 7.73221C17.3621 8.04154 17.1114 8.29259 16.8017 8.29259H10.9487C10.639 8.29259 10.3883 8.04154 10.3883 7.73221ZM17.0509 13.2609H11.1979C10.8882 13.2609 10.6375 13.0099 10.6375 12.7005C10.6375 12.3912 10.8882 12.1402 11.1979 12.1402H17.0509C17.3606 12.1402 17.6113 12.3912 17.6113 12.7005C17.6113 13.0099 17.3602 13.2609 17.0509 13.2609ZM17.7981 10.7769H11.9451C11.6354 10.7769 11.3847 10.5259 11.3847 10.2166C11.3847 9.90724 11.6354 9.65619 11.9451 9.65619H17.7981C18.1078 9.65619 18.3585 9.90724 18.3585 10.2166C18.3585 10.5259 18.1074 10.7769 17.7981 10.7769Z" fill="#DA8924"/>
</g>
<defs>
<clipPath id="clip0">
<rect width="20" height="20" fill="white"/>
</clipPath>
</defs>
</svg>
