<svg width="47" height="47" viewBox="0 0 47 47" fill="none" xmlns="http://www.w3.org/2000/svg">
<g clip-path="url(#clip0)">
<path d="M23.4849 0L17.8145 23.485L23.4849 46.97C36.4553 46.97 46.9699 36.4554 46.9699 23.485C46.9699 10.5146 36.4553 0 23.4849 0Z" fill="#54BBFF"/>
<path d="M0 23.485C0 36.4554 10.5146 46.97 23.485 46.97V0C10.5146 0 0 10.5146 0 23.485Z" fill="#8DD2FF"/>
<path d="M23.4851 2.83569V44.1353C34.8896 44.1353 44.1349 34.8901 44.1349 23.4854C44.1349 12.0808 34.8896 2.83569 23.4851 2.83569Z" fill="#0789DE"/>
<path d="M41.3001 23.4855C41.3001 12.081 33.3243 2.83569 23.4855 2.83569C12.081 2.83569 2.83569 12.081 2.83569 23.4855C2.83569 34.8901 12.081 44.1353 23.4855 44.1353C33.3243 44.1353 41.3001 34.8901 41.3001 23.4855Z" fill="#2EA2EF"/>
<path d="M23.4849 14.4593C24.5288 14.4593 25.3751 13.613 25.3751 12.5691C25.3751 11.5252 24.5288 10.679 23.4849 10.679C22.441 10.679 21.5947 11.5252 21.5947 12.5691C21.5947 13.613 22.441 14.4593 23.4849 14.4593Z" fill="white"/>
<path d="M23.4849 17.2947C22.441 17.2947 21.5947 18.1409 21.5947 19.1849V34.4004C21.5947 35.4443 22.4409 36.2906 23.4849 36.2906C24.5288 36.2906 25.3751 35.4444 25.3751 34.4004V19.1849C25.3751 18.1409 24.5288 17.2947 23.4849 17.2947Z" fill="white"/>
</g>
<defs>
<clipPath id="clip0">
<rect width="46.97" height="46.97" fill="white"/>
</clipPath>
</defs>
</svg>
