<svg width="47" height="47" viewBox="0 0 47 47" fill="none" xmlns="http://www.w3.org/2000/svg">
<g clip-path="url(#clip0)">
<path d="M34.7795 46.9701H12.1908C11.1575 46.9701 10.3198 46.1324 10.3198 45.0991V35.8089C10.3198 30.6181 14.5278 26.4102 19.7186 26.4102H27.2519C32.4427 26.4102 36.6506 30.6181 36.6506 35.8089V45.0991C36.6505 46.1324 35.8129 46.9701 34.7795 46.9701Z" fill="#FABF24"/>
<path d="M27.2519 26.4102H24.4902C29.6811 26.4102 33.889 30.6181 33.889 35.8089V45.0991C33.889 46.1324 33.0513 46.9701 32.018 46.9701H34.7797C35.813 46.9701 36.6507 46.1324 36.6507 45.0991V35.8089C36.6507 30.6181 32.4428 26.4102 27.2519 26.4102Z" fill="#F2994A"/>
<path d="M24.2804 33.8523L28.1706 24.2161H18.7998L22.69 33.8523C22.9788 34.5678 23.9916 34.5678 24.2804 33.8523Z" fill="#544F57"/>
<path d="M30.0902 37.2836C29.6988 37.2836 29.3815 36.9663 29.3815 36.5749V30.8353C29.3815 29.4582 28.8073 27.3631 28.0389 26.6204C27.7575 26.3485 27.7499 25.8998 28.0219 25.6183C28.2937 25.3368 28.7425 25.3292 29.0239 25.6013C30.1204 26.6608 30.799 29.1432 30.799 30.8353V36.5749C30.7989 36.9663 30.4817 37.2836 30.0902 37.2836Z" fill="#454045"/>
<path d="M16.8801 37.2834C16.4887 37.2834 16.1714 36.9661 16.1714 36.5747V30.8351C16.1714 29.1429 16.8501 26.6605 17.9464 25.6009C18.2279 25.3289 18.6765 25.3366 18.9485 25.6181C19.2205 25.8995 19.2128 26.3481 18.9313 26.6202C18.1628 27.3628 17.5887 29.458 17.5887 30.8351V36.5747C17.5887 36.9661 17.2715 37.2834 16.8801 37.2834Z" fill="#454045"/>
<path d="M30.09 40.2395C31.2585 40.2395 32.2058 39.2922 32.2058 38.1237C32.2058 36.9551 31.2585 36.0078 30.09 36.0078C28.9214 36.0078 27.9741 36.9551 27.9741 38.1237C27.9741 39.2922 28.9214 40.2395 30.09 40.2395Z" fill="#F6F1F1"/>
<path d="M30.09 36.0078C29.8146 36.0078 29.5518 36.0609 29.3105 36.1567C30.0933 36.4671 30.647 37.2305 30.647 38.1237C30.647 39.0168 30.0933 39.7802 29.3105 40.0906C29.5518 40.1863 29.8146 40.2395 30.09 40.2395C31.2585 40.2395 32.2058 39.2922 32.2058 38.1237C32.2057 36.9551 31.2584 36.0078 30.09 36.0078Z" fill="#EADFDA"/>
<path d="M19.0242 44.3693H18.0839C17.6925 44.3693 17.3752 44.0521 17.3752 43.6606C17.3752 43.2692 17.6925 42.9519 18.0839 42.9519H18.7999V39.3166C18.7999 38.2582 17.9387 37.3971 16.8803 37.3971C15.8219 37.3971 14.9608 38.2582 14.9608 39.3166V42.9519H15.6768C16.0682 42.9519 16.3855 43.2692 16.3855 43.6606C16.3855 44.0521 16.0682 44.3693 15.6768 44.3693H14.7365C14.0787 44.3693 13.5435 43.8341 13.5435 43.1761V39.3166C13.5435 37.4766 15.0404 35.9797 16.8803 35.9797C18.7203 35.9797 20.2172 37.4766 20.2172 39.3166V43.1761C20.2172 43.8341 19.682 44.3693 19.0242 44.3693Z" fill="#F6F1F1"/>
<path d="M23.485 44.5545C23.0937 44.5545 22.7764 44.2373 22.7764 43.8459V40.0161C22.7764 39.6246 23.0937 39.3074 23.485 39.3074C23.8764 39.3074 24.1937 39.6246 24.1937 40.0161V43.8459C24.1938 44.2373 23.8764 44.5545 23.485 44.5545Z" fill="#F6F1F1"/>
<path d="M25.3997 42.6395H21.57C21.1787 42.6395 20.8613 42.3223 20.8613 41.9308C20.8613 41.5394 21.1787 41.2222 21.57 41.2222H25.3997C25.7912 41.2222 26.1084 41.5394 26.1084 41.9308C26.1084 42.3223 25.7912 42.6395 25.3997 42.6395Z" fill="#F6F1F1"/>
<path d="M28.5861 2.69444C28.5331 2.69151 28.4853 2.66151 28.4595 2.615C28.4339 2.56849 28.4338 2.51198 28.4595 2.46556L29.0222 1.45112C29.4757 0.63336 28.629 -0.29182 27.7744 0.0877927L23.2342 2.10438C22.3731 2.48684 21.4413 2.68454 20.499 2.68454H18.6993C15.5967 2.68454 13.0815 5.19973 13.0815 8.30231V17.2957H33.889V8.30222C33.889 5.30541 31.5421 2.85792 28.5861 2.69444Z" fill="#544F57"/>
<path d="M28.5859 2.69444C28.5329 2.69151 28.4851 2.66151 28.4593 2.615C28.4336 2.56849 28.4335 2.51198 28.4593 2.46556L29.0219 1.45112C29.4755 0.63336 28.6287 -0.29182 27.7741 0.0877927L26.9747 0.44282C27.1612 0.722622 27.209 1.09682 27.0125 1.45112L27.0084 1.45855C26.7004 2.01375 27.0119 2.69921 27.6279 2.85306C30.07 3.46321 31.8792 5.67098 31.8792 8.30222V17.2956H33.8886V8.30222C33.8887 5.30541 31.5419 2.85792 28.5859 2.69444Z" fill="#454045"/>
<path d="M15.2287 19.7932H14.5289C13.4691 19.7932 12.6099 18.934 12.6099 17.8741V17.476C12.6099 16.4161 13.4691 15.5569 14.5289 15.5569H15.2287V19.7932Z" fill="#E2A770"/>
<path d="M31.7412 19.7932H32.441C33.5008 19.7932 34.3601 18.934 34.3601 17.8741V17.476C34.3601 16.4161 33.5008 15.5569 32.441 15.5569H31.7412V19.7932Z" fill="#E2A770"/>
<path d="M23.485 27.8548C18.8239 27.8548 15.0454 24.0763 15.0454 19.4152V12.0178C15.0454 11.9612 15.0764 11.9091 15.1261 11.8822C15.1759 11.8552 15.2363 11.8577 15.2838 11.8885C20.7513 15.439 26.2188 15.439 31.6862 11.8885C31.7336 11.8577 31.7941 11.8553 31.8439 11.8823C31.8936 11.9092 31.9247 11.9612 31.9247 12.0177V19.4151C31.9247 24.0762 28.1461 27.8548 23.485 27.8548Z" fill="#F1D0A5"/>
<path d="M30.0098 12.8653C25.1012 15.4013 20.1926 15.0761 15.2839 11.8884C15.2365 11.8576 15.176 11.8552 15.1262 11.8822C15.0765 11.9091 15.0454 11.9612 15.0454 12.0177V13.3371C19.4991 16.3133 23.9527 16.9333 28.4064 15.1976C29.177 14.8972 30.0097 15.4557 30.0097 16.2828V19.4149C30.0097 23.7522 26.7377 27.3247 22.5276 27.8001C22.8419 27.8356 23.1612 27.8545 23.485 27.8545C28.1461 27.8545 31.9247 24.076 31.9247 19.4149V12.0177C31.9247 11.9612 31.8938 11.9091 31.8441 11.8821C31.7943 11.855 31.7339 11.8573 31.6864 11.888C31.1246 12.2527 30.5568 12.5828 30.0098 12.8653Z" fill="#F1B986"/>
</g>
<defs>
<clipPath id="clip0">
<rect width="46.97" height="46.97" fill="white"/>
</clipPath>
</defs>
</svg>
