<svg width="47" height="47" viewBox="0 0 47 47" fill="none" xmlns="http://www.w3.org/2000/svg">
<g clip-path="url(#clip0)">
<path d="M43.5338 12.0184H37.9105C36.8757 12.0184 36.0366 11.1794 36.0366 10.1445V1.87385C36.0366 0.838947 36.8757 0 37.9105 0H43.5338C44.5686 0 45.4077 0.838947 45.4077 1.87385V10.1446C45.4077 11.1793 44.5687 12.0184 43.5338 12.0184Z" fill="#51B3DA"/>
<path d="M37.9104 46.97H3.43635C2.40154 46.97 1.5625 46.1311 1.5625 45.0962V1.87385C1.5625 0.838947 2.40145 0 3.43635 0H37.9105C38.9453 0 39.7843 0.838947 39.7843 1.87385V45.0962C39.7842 46.1311 38.9453 46.97 37.9104 46.97Z" fill="#FFD76D"/>
<path d="M37.9104 0H20.6733V46.97H37.9103C38.9451 46.97 39.7842 46.1311 39.7842 45.0962V1.87385C39.7842 0.838947 38.9453 0 37.9104 0Z" fill="#FCC944"/>
<path d="M25.3548 12.2896H22.5473V9.482C22.5473 8.44719 21.7083 7.60815 20.6734 7.60815C19.6385 7.60815 18.7996 8.4471 18.7996 9.482V12.2896H15.992C14.9572 12.2896 14.1182 13.1285 14.1182 14.1634C14.1182 15.1982 14.9571 16.0373 15.992 16.0373H18.7996V18.8448C18.7996 19.8796 19.6385 20.7187 20.6734 20.7187C21.7083 20.7187 22.5473 19.8797 22.5473 18.8448V16.0373H25.3548C26.3896 16.0373 27.2287 15.1983 27.2287 14.1634C27.2286 13.1285 26.3896 12.2896 25.3548 12.2896Z" fill="#FF5E5B"/>
<path d="M31.1085 28.4257H10.2386C9.20378 28.4257 8.36475 27.5867 8.36475 26.5518C8.36475 25.5169 9.20369 24.678 10.2386 24.678H31.1085C32.1433 24.678 32.9823 25.5169 32.9823 26.5518C32.9823 27.5867 32.1435 28.4257 31.1085 28.4257Z" fill="#FABF24"/>
<path d="M31.1085 34.1762H10.2386C9.20378 34.1762 8.36475 33.3372 8.36475 32.3023C8.36475 31.2674 9.20369 30.4285 10.2386 30.4285H31.1085C32.1433 30.4285 32.9823 31.2674 32.9823 32.3023C32.9823 33.3372 32.1435 34.1762 31.1085 34.1762Z" fill="#FABF24"/>
<path d="M31.1085 39.9269H10.2386C9.20378 39.9269 8.36475 39.0879 8.36475 38.053C8.36475 37.0181 9.20369 36.1792 10.2386 36.1792H31.1085C32.1433 36.1792 32.9823 37.0181 32.9823 38.053C32.9823 39.0879 32.1435 39.9269 31.1085 39.9269Z" fill="#FABF24"/>
<path d="M25.3548 12.2896H22.5472V9.482C22.5472 8.44719 21.7082 7.60815 20.6733 7.60815V20.7184C21.7081 20.7184 22.5472 19.8794 22.5472 18.8445V16.037H25.3548C26.3896 16.037 27.2286 15.198 27.2286 14.1631C27.2285 13.1285 26.3896 12.2896 25.3548 12.2896Z" fill="#FF423D"/>
<path d="M31.1083 24.678H20.6733V28.4256H31.1083C32.1431 28.4256 32.9822 27.5866 32.9822 26.5517C32.9822 25.5168 32.1433 24.678 31.1083 24.678Z" fill="#FFB700"/>
<path d="M31.1083 30.4285H20.6733V34.1761H31.1083C32.1431 34.1761 32.9822 33.3371 32.9822 32.3022C32.9821 31.2674 32.1433 30.4285 31.1083 30.4285Z" fill="#FFB700"/>
<path d="M31.1083 36.1792H20.6733V39.9268H31.1083C32.1431 39.9268 32.9822 39.0879 32.9822 38.053C32.9822 37.0181 32.1433 36.1792 31.1083 36.1792Z" fill="#FFB700"/>
</g>
<defs>
<clipPath id="clip0">
<rect width="46.97" height="46.97" fill="white"/>
</clipPath>
</defs>
</svg>
