<svg width="49" height="49" viewBox="0 0 49 49" fill="none" xmlns="http://www.w3.org/2000/svg">
<circle cx="24.4998" cy="24.4026" r="22.9026" stroke="#3B823E" stroke-width="3"/>
<circle cx="24.4997" cy="24.4027" r="19.0187" fill="#3B823E"/>
<g clip-path="url(#clip0)">
<path d="M33.8987 21.0165C33.561 18.0634 30.9894 15.8447 28.0243 14.8173C29.3751 16.3564 30.3399 18.747 30.3399 21.6806H31.3827L27.0558 26.7392C26.963 26.7158 26.8776 26.6806 26.7774 26.6806H24.9962V21.6806H29.1524C29.1524 17.1806 26.5956 14.1806 24.4024 14.1806C22.2093 14.1806 19.6524 17.1806 19.6524 21.6806H23.8087V26.6806H22.0274C21.9272 26.6806 21.8419 26.7158 21.7491 26.7392L17.4222 21.6806H18.4649C18.4649 18.747 19.4298 16.3564 20.7806 14.8173C17.8155 15.8486 15.2438 18.0673 14.9062 21.0165C14.8653 21.372 15.1585 21.6806 15.4999 21.6806H15.8228L20.8956 27.6142C20.8696 27.7158 20.8362 27.8173 20.8362 27.9306V32.9306C20.8362 33.622 21.3669 34.1806 22.0237 34.1806H26.7737C27.4306 34.1806 27.9612 33.622 27.9612 32.9306V27.9306C27.9612 27.8173 27.9278 27.7197 27.9019 27.6142L32.9784 21.6806H33.3013C33.6464 21.6806 33.9396 21.3759 33.8987 21.0165V21.0165Z" fill="white"/>
</g>
<defs>
<clipPath id="clip0">
<rect width="19" height="20" fill="white" transform="translate(14.9023 14.1806)"/>
</clipPath>
</defs>
</svg>
