<svg width="49" height="50" viewBox="0 0 49 50" fill="none" xmlns="http://www.w3.org/2000/svg">
<circle cx="24.4026" cy="25.222" r="22.9026" stroke="#3B823E" stroke-width="3"/>
<circle cx="24.4026" cy="25.2221" r="18.8518" fill="#3B823E"/>
<path d="M27.6146 24.9996C27.1166 24.9996 26.6481 24.7344 26.3947 24.3101L24.5001 21.1691L22.6084 24.3101C22.352 24.7374 21.8835 25.0026 21.3855 25.0026C21.253 25.0026 21.1204 24.9849 20.9937 24.9466L16.9569 23.7915V29.0364C16.9569 29.4696 17.2515 29.8467 17.6699 29.9499L24.0404 31.5439C24.3409 31.6176 24.6562 31.6176 24.9538 31.5439L31.3302 29.9499C31.7486 29.8438 32.0433 29.4666 32.0433 29.0364V23.7915L28.0065 24.9437C27.8798 24.982 27.7472 24.9996 27.6146 24.9996ZM33.879 21.6936L32.3615 18.6645C32.2701 18.4818 32.0727 18.3758 31.8694 18.4023L24.5001 19.3422L27.2021 23.824C27.314 24.0096 27.538 24.098 27.7472 24.0391L33.5784 22.3743C33.8701 22.2888 34.0116 21.9647 33.879 21.6936ZM16.6386 18.6645L15.1212 21.6936C14.9856 21.9647 15.13 22.2888 15.4188 22.3713L21.25 24.0361C21.4592 24.095 21.6832 24.0066 21.7951 23.821L24.5001 19.3422L17.1278 18.4023C16.9245 18.3787 16.73 18.4818 16.6386 18.6645Z" fill="white"/>
</svg>
