<svg width="49" height="50" viewBox="0 0 49 50" fill="none" xmlns="http://www.w3.org/2000/svg">
<circle cx="24.5003" cy="25.222" r="22.9026" stroke="#DCDCDC" stroke-width="3"/>
<circle cx="24.5001" cy="25.2221" r="18.3302" fill="#DCDCDC"/>
<path d="M34.5 27.3125H34V24.1455C34 23.7734 33.8406 23.416 33.5594 23.1523L30.4375 20.2256C30.1562 19.9619 29.775 19.8125 29.3781 19.8125H28V18.4062C28 17.6299 27.3281 17 26.5 17H16.5C15.6719 17 15 17.6299 15 18.4062V27.7812C15 28.5576 15.6719 29.1875 16.5 29.1875H17C17 30.7402 18.3438 32 20 32C21.6562 32 23 30.7402 23 29.1875H27C27 30.7402 28.3438 32 30 32C31.6562 32 33 30.7402 33 29.1875H34.5C34.775 29.1875 35 28.9766 35 28.7188V27.7812C35 27.5234 34.775 27.3125 34.5 27.3125ZM20 30.5938C19.1719 30.5938 18.5 29.9639 18.5 29.1875C18.5 28.4111 19.1719 27.7812 20 27.7812C20.8281 27.7812 21.5 28.4111 21.5 29.1875C21.5 29.9639 20.8281 30.5938 20 30.5938ZM30 30.5938C29.1719 30.5938 28.5 29.9639 28.5 29.1875C28.5 28.4111 29.1719 27.7812 30 27.7812C30.8281 27.7812 31.5 28.4111 31.5 29.1875C31.5 29.9639 30.8281 30.5938 30 30.5938ZM32.5 24.5H28V21.2188H29.3781L32.5 24.1455V24.5Z" fill="#A8A8A8"/>
</svg>
