<svg width="49" height="49" viewBox="0 0 49 49" fill="none" xmlns="http://www.w3.org/2000/svg">
<circle cx="24.4026" cy="24.4026" r="22.9026" stroke="#3B823E" stroke-width="3"/>
<circle cx="24.4024" cy="24.4027" r="18.3302" fill="#3B823E"/>
<g clip-path="url(#clip0)">
<path d="M34.4023 26.4931H33.9023V23.3261C33.9023 22.954 33.743 22.5966 33.4617 22.3329L30.3398 19.4062C30.0586 19.1425 29.6773 18.9931 29.2805 18.9931H27.9023V17.5869C27.9023 16.8105 27.2305 16.1806 26.4023 16.1806H16.4023C15.5742 16.1806 14.9023 16.8105 14.9023 17.5869V26.9619C14.9023 27.7382 15.5742 28.3681 16.4023 28.3681H16.9023C16.9023 29.9208 18.2461 31.1806 19.9023 31.1806C21.5586 31.1806 22.9023 29.9208 22.9023 28.3681H26.9023C26.9023 29.9208 28.2461 31.1806 29.9023 31.1806C31.5586 31.1806 32.9023 29.9208 32.9023 28.3681H34.4023C34.6773 28.3681 34.9023 28.1572 34.9023 27.8994V26.9619C34.9023 26.704 34.6773 26.4931 34.4023 26.4931ZM19.9023 29.7744C19.0742 29.7744 18.4023 29.1445 18.4023 28.3681C18.4023 27.5917 19.0742 26.9619 19.9023 26.9619C20.7305 26.9619 21.4023 27.5917 21.4023 28.3681C21.4023 29.1445 20.7305 29.7744 19.9023 29.7744ZM29.9023 29.7744C29.0742 29.7744 28.4023 29.1445 28.4023 28.3681C28.4023 27.5917 29.0742 26.9619 29.9023 26.9619C30.7305 26.9619 31.4023 27.5917 31.4023 28.3681C31.4023 29.1445 30.7305 29.7744 29.9023 29.7744ZM32.4023 23.6806H27.9023V20.3994H29.2805L32.4023 23.3261V23.6806Z" fill="white"/>
</g>
<defs>
<clipPath id="clip0">
<rect width="20" height="15" fill="white" transform="translate(14.9023 16.1806)"/>
</clipPath>
</defs>
</svg>
