<svg width="49" height="50" viewBox="0 0 49 50" fill="none" xmlns="http://www.w3.org/2000/svg">
<circle cx="24.5975" cy="25.222" r="22.9026" stroke="#DCDCDC" stroke-width="3"/>
<circle cx="24.5973" cy="25.2221" r="19.0187" fill="#DCDCDC"/>
<g clip-path="url(#clip0)">
<path d="M33.9964 21.8359C33.6587 18.8828 31.087 16.6641 28.122 15.6367C29.4728 17.1758 30.4376 19.5664 30.4376 22.5H31.4804L27.1534 27.5586C27.0606 27.5352 26.9753 27.5 26.8751 27.5H25.0938V22.5H29.2501C29.2501 18 26.6933 15 24.5001 15C22.3069 15 19.7501 18 19.7501 22.5H23.9063V27.5H22.1251C22.0249 27.5 21.9396 27.5352 21.8468 27.5586L17.5198 22.5H18.5626C18.5626 19.5664 19.5274 17.1758 20.8782 15.6367C17.9132 16.668 15.3415 18.8867 15.0038 21.8359C14.963 22.1914 15.2562 22.5 15.5976 22.5H15.9204L20.9933 28.4336C20.9673 28.5352 20.9339 28.6367 20.9339 28.75V33.75C20.9339 34.4414 21.4646 35 22.1214 35H26.8714C27.5282 35 28.0589 34.4414 28.0589 33.75V28.75C28.0589 28.6367 28.0255 28.5391 27.9995 28.4336L33.0761 22.5H33.3989C33.744 22.5 34.0372 22.1953 33.9964 21.8359Z" fill="#A8A8A8"/>
</g>
<defs>
<clipPath id="clip0">
<rect width="19" height="20" fill="white" transform="translate(15 15)"/>
</clipPath>
</defs>
</svg>
