<svg xmlns="http://www.w3.org/2000/svg" width="70" height="70" viewBox="0 0 70 70">
	<defs><style>.a{fill:#da8924;}</style></defs>
  <g>
    <circle id="Ellipse_137" data-name="Ellipse 137" cx="35" cy="35" r="35" fill="#fef1d4"/>    
  </g>
  <g style="transform: translate(14px, -237px) scale(2.2);"><path class="a" d="M5.957,126.81a1.77,1.77,0,1,0,1.769,1.769A1.771,1.771,0,0,0,5.957,126.81Zm0,2.656a.886.886,0,1,1,.884-.887A.888.888,0,0,1,5.957,129.466ZM4.432,126.81H.468a.284.284,0,0,0-.284.284v.863a.284.284,0,0,0,.284.284H3.645A2.334,2.334,0,0,1,4.432,126.81Zm10.78,0a1.77,1.77,0,1,0,1.769,1.769A1.771,1.771,0,0,0,15.213,126.81Zm0,2.656a.886.886,0,1,1,.884-.887A.886.886,0,0,1,15.213,129.466Zm4.612-2.656h-.691v-3.864a2.277,2.277,0,0,0-.39-1.271l-1.732-2.565a2.272,2.272,0,0,0-1.885-1H12.443a.569.569,0,0,0-.569.569v8.132H7.481a2.339,2.339,0,0,1,.785,1.433H12.9a2.334,2.334,0,0,1,4.621,0h2.3a.283.283,0,0,0,.284-.284v-.864A.283.283,0,0,0,19.825,126.81Zm-2.832-4.623H13.45a.283.283,0,0,1-.284-.284v-1.965a.285.285,0,0,1,.284-.284h2.158a.284.284,0,0,1,.233.119l1.385,1.968A.283.283,0,0,1,16.993,122.186Zm-6.472,4.055H.569A.569.569,0,0,1,0,125.672v-2.559a.569.569,0,0,1,.569-.569h9.952a.569.569,0,0,1,.569.569v2.559A.569.569,0,0,1,10.521,126.241Zm-5.971-4.55H.569A.569.569,0,0,1,0,121.123v-2.559a.569.569,0,0,1,.569-.569H4.55a.569.569,0,0,1,.569.569v2.559A.569.569,0,0,1,4.55,121.691Zm5.971,0H6.54a.569.569,0,0,1-.569-.569v-2.559A.569.569,0,0,1,6.54,118h3.981a.569.569,0,0,1,.569.569v2.559A.569.569,0,0,1,10.521,121.691Z"/></g>
</svg>
