<svg xmlns="http://www.w3.org/2000/svg" width="70" height="70" viewBox="0 0 70 70">
  <g>
    <circle id="Ellipse_137" data-name="Ellipse 137" cx="35" cy="35" r="35" fill="#DA8924" opacity="0.20"/>
    <path class="a" d="M120.55,165.919v8.608a.45.45,0,0,0,.451.451h9.312a.45.45,0,0,0,.451-.451v-8.608a.451.451,0,0,0-.233-.4l-2.294-1.266V163.6h-5.16v.656l-2.294,1.266A.454.454,0,0,0,120.55,165.919Zm1.966,3.365a.45.45,0,0,1,.451-.451h1.672v-1.67a.45.45,0,0,1,.451-.451h1.134a.45.45,0,0,1,.451.451v1.672h1.67a.45.45,0,0,1,.451.451v1.134a.45.45,0,0,1-.451.451h-1.672v1.69a.45.45,0,0,1-.451.451h-1.134a.45.45,0,0,1-.451-.451v-1.691h-1.67a.45.45,0,0,1-.451-.451v-1.134Z" style="transform: translate(-242px, -334px) scale(2.2)" fill="#DA8924"/>
	<path class="a" d="M257.95,1.481a.45.45,0,0,0,.451.451h5.183a.45.45,0,0,0,.451-.451V.451A.45.45,0,0,0,263.583,0H258.4a.45.45,0,0,0-.451.451Z" style="transform: translate(-540px, 19px) scale(2.2)" fill="#DA8924"/>
  </g>
</svg>
