<svg xmlns="http://www.w3.org/2000/svg" width="70" height="70" viewBox="0 0 70 70">
	<defs><style>.a{fill:#da8924;}</style></defs>
  <g>
    <circle id="Ellipse_137" data-name="Ellipse 137" cx="35" cy="35" r="35" fill="#fef1d4"/>    
  </g>
  <g style="transform: translate(-8px, 12px)  scale(2);"><path class="a" d="M21.773,9.967v7.311l5.82-1.1V12.611a.25.25,0,0,1,.278-.248l.716.111a.25.25,0,0,1,.221.248V16.86a.25.25,0,0,1-.2.244l-6.372,1.37a2.246,2.246,0,0,1-.934,0L15,17.151a.25.25,0,0,1-.2-.238l-.109-4.2a.25.25,0,0,1,.228-.255l5.354-.47a.249.249,0,0,0,.209-.154l.807-1.959A.25.25,0,0,1,21.773,9.967ZM14.635,7.573l-1.68,3.591a.25.25,0,0,0,.251.354l6.31-.638a.25.25,0,0,0,.2-.147l2.03-4.574L14.816,7.434A.25.25,0,0,0,14.635,7.573ZM21.749,6.16,23.9,10.877a.25.25,0,0,0,.207.145l6.3.506a.25.25,0,0,0,.247-.352l-1.643-3.6a.25.25,0,0,0-.183-.142ZM19.984,2.436l1.559,2.7a.312.312,0,0,0,.54,0l1.559-2.7a.312.312,0,0,0-.27-.468h-.779V.312A.312.312,0,0,0,22.281,0h-.936a.312.312,0,0,0-.312.312V1.968h-.779A.312.312,0,0,0,19.984,2.436Z"/></g>
</svg>
