<svg xmlns="http://www.w3.org/2000/svg" width="24" height="24" viewBox="0 0 24 24">
  <g id="product" transform="translate(0)">
    <path id="Path_39" data-name="Path 39" d="M0,0H24V24H0ZM0,0H24V24H0Z" fill="none"/>
    <path id="Path_40" data-name="Path 40" d="M18,8H17V6A5,5,0,0,0,7,6V8H6a2.006,2.006,0,0,0-2,2V20a2.006,2.006,0,0,0,2,2H18a2.006,2.006,0,0,0,2-2V10A2.006,2.006,0,0,0,18,8ZM8.9,6a3.1,3.1,0,0,1,6.2,0V8H8.9ZM18,20h0Z" fill="#3B823E"/>
    <path id="Path_59" data-name="Path 59" d="M-228.974,634.976h1.9v3.117h3.055v1.9h-3.055v3.055h-1.9v-3.055h-3.055v-2.106h3.055Z" transform="translate(240 -624)" fill="#fff"/>
  </g>
</svg>
