<svg xmlns="http://www.w3.org/2000/svg" width="24" height="24" viewBox="0 0 24 24">
  <g id="rewards" transform="translate(0)">
    <path id="Path_60" data-name="Path 60" d="M11.169,7.258h1.7S14.4,4.192,17.056,4.841a4.242,4.242,0,0,1,2.358,6.839,73.464,73.464,0,0,1-7.428,7.133S4.263,11.8,3.909,9.97,1.02,5.371,5.737,4.841,11.169,7.258,11.169,7.258Z" fill="#3B823E"/>
    <path id="Path_21" data-name="Path 21" d="M0,0H24V24H0Z" fill="none"/>
    <path id="Path_22" data-name="Path 22" d="M16.5,3A5.988,5.988,0,0,0,12,5.09,5.988,5.988,0,0,0,7.5,3,5.447,5.447,0,0,0,2,8.5c0,3.78,3.4,6.86,8.55,11.54L12,21.35l1.45-1.32C18.6,15.36,22,12.28,22,8.5A5.447,5.447,0,0,0,16.5,3ZM12.1,18.55l-.1.1-.1-.1C7.14,14.24,4,11.39,4,8.5A3.418,3.418,0,0,1,7.5,5a3.909,3.909,0,0,1,3.57,2.36h1.87A3.885,3.885,0,0,1,16.5,5,3.418,3.418,0,0,1,20,8.5C20,11.39,16.86,14.24,12.1,18.55Z" fill="#3B823E"/>
  </g>
</svg>
