<svg width="20" height="20" viewBox="0 0 20 20" fill="none" xmlns="http://www.w3.org/2000/svg">
<g clip-path="url(#clip0)">
<path d="M7.2915 14.6766V18.5416C7.2915 18.8116 7.46484 19.0508 7.7215 19.1358C7.78567 19.1566 7.8515 19.1666 7.9165 19.1666C8.1115 19.1666 8.29983 19.075 8.41983 18.9116L10.6807 15.835L7.2915 14.6766Z" fill="#3B823E"/>
<path d="M19.7375 0.115846C19.5459 -0.0199872 19.2942 -0.0383205 19.0859 0.0708461L0.33587 9.86251C0.114204 9.97835 -0.0166296 10.215 0.00170373 10.4642C0.0208704 10.7142 0.186704 10.9275 0.422537 11.0083L5.63504 12.79L16.7359 3.29835L8.14587 13.6475L16.8817 16.6333C16.9467 16.655 17.015 16.6667 17.0834 16.6667C17.1967 16.6667 17.3092 16.6358 17.4084 16.5758C17.5667 16.4792 17.6742 16.3167 17.7017 16.1342L19.9934 0.717513C20.0275 0.48418 19.9292 0.252513 19.7375 0.115846Z" fill="#3B823E"/>
</g>
<defs>
<clipPath id="clip0">
<rect width="20" height="20" fill="white"/>
</clipPath>
</defs>
</svg>
