<svg width="24" height="24" viewBox="0 0 24 24" fill="none" xmlns="http://www.w3.org/2000/svg">
<path d="M17.4375 8.95312C15.0328 8.95312 12.9264 10.2535 11.7836 12.1877L6.04711 9.71503C6.07716 9.54356 6.09375 9.36745 6.09375 9.1875C6.09375 9.00755 6.07716 8.83144 6.04711 8.65997L11.9237 6.12689C12.3968 6.70692 13.1167 7.07812 13.9219 7.07812C15.3435 7.07812 16.5 5.92158 16.5 4.5C16.5 3.07842 15.3435 1.92188 13.9219 1.92188C12.5003 1.92188 11.3438 3.07842 11.3438 4.5C11.3438 4.61391 11.352 4.72584 11.3663 4.83591L5.48991 7.36889C4.93392 6.62391 4.04583 6.14062 3.04688 6.14062C1.36683 6.14062 0 7.50745 0 9.1875C0 10.8675 1.36683 12.2344 3.04688 12.2344C4.04583 12.2344 4.93392 11.7511 5.48991 11.0062L11.2024 13.4685C10.9902 14.1129 10.875 14.801 10.875 15.5156C10.875 19.1342 13.8189 22.0781 17.4375 22.0781C21.0561 22.0781 24 19.1342 24 15.5156C24 11.8971 21.0561 8.95312 17.4375 8.95312ZM13.9219 3.32812C14.568 3.32812 15.0938 3.85383 15.0938 4.5C15.0938 5.14617 14.568 5.67188 13.9219 5.67188C13.2757 5.67188 12.75 5.14617 12.75 4.5C12.75 3.85383 13.2757 3.32812 13.9219 3.32812ZM3.04688 10.8281C2.14223 10.8281 1.40625 10.0921 1.40625 9.1875C1.40625 8.28286 2.14223 7.54688 3.04688 7.54688C3.95152 7.54688 4.6875 8.28286 4.6875 9.1875C4.6875 10.0921 3.95152 10.8281 3.04688 10.8281ZM14.8594 19.9797V19.9688C14.8594 18.5472 16.0159 17.3906 17.4375 17.3906C18.8591 17.3906 20.0156 18.5472 20.0156 19.9688V19.9797C19.2567 20.4197 18.376 20.6719 17.4375 20.6719C16.499 20.6719 15.6183 20.4197 14.8594 19.9797ZM16.2656 14.8125C16.2656 14.1663 16.7913 13.6406 17.4375 13.6406C18.0837 13.6406 18.6094 14.1663 18.6094 14.8125C18.6094 15.4587 18.0837 15.9844 17.4375 15.9844C16.7913 15.9844 16.2656 15.4587 16.2656 14.8125ZM21.2871 18.942C21.0075 17.895 20.3113 17.0169 19.3875 16.4961C19.7783 16.044 20.0156 15.4556 20.0156 14.8125C20.0156 13.3909 18.8591 12.2344 17.4375 12.2344C16.0159 12.2344 14.8594 13.3909 14.8594 14.8125C14.8594 15.4556 15.0967 16.044 15.4875 16.4961C14.5637 17.0169 13.8675 17.895 13.5879 18.942C12.7757 18.0304 12.2812 16.8298 12.2812 15.5156C12.2812 12.6725 14.5943 10.3594 17.4375 10.3594C20.2807 10.3594 22.5938 12.6725 22.5938 15.5156C22.5938 16.8298 22.0993 18.0304 21.2871 18.942Z" fill="#27AE60"/>
</svg>
