<svg width="30" height="30" viewBox="0 0 30 30" fill="none" xmlns="http://www.w3.org/2000/svg">
<path d="M7.8425 20.1217C7.65618 19.9368 7.37863 19.9659 7.22258 20.1865L6.12221 21.7424L5.72453 21.3434C5.53909 21.1573 5.26145 21.1845 5.10431 21.4041C4.9472 21.6238 4.97018 21.9526 5.15562 22.1387L5.89096 22.8765C5.97074 22.9565 6.07165 23 6.17542 23C6.18791 23 6.20041 22.9994 6.21295 22.9981C6.32966 22.9862 6.4376 22.9198 6.51281 22.8135L7.89737 20.8558C8.05333 20.6352 8.02878 20.3065 7.8425 20.1217Z" fill="#27AE60"/>
<path d="M26.0072 12.5298H25.3336C24.7693 12.5033 24.3155 12.0152 23.7904 11.4504C23.4396 11.073 23.0639 10.669 22.6114 10.3695V6.29996C22.6114 5.58317 22.0372 5 21.3314 5H6.04204C5.33625 5 4.76207 5.58317 4.76207 6.29996V14.4771C4.76207 14.74 4.97193 14.9531 5.23082 14.9531C5.48971 14.9531 5.69957 14.74 5.69957 14.4771V6.29996C5.69957 6.11144 5.85642 5.95211 6.04204 5.95211H11.2292V10.1641C11.2292 10.3371 11.3217 10.4966 11.4707 10.5805C11.5415 10.6203 11.6197 10.6402 11.6979 10.6402C11.7843 10.6402 11.8705 10.6159 11.9464 10.5678L13.6873 9.46273L15.427 10.5677C15.5715 10.6595 15.7536 10.6644 15.9027 10.5805C16.0518 10.4967 16.1443 10.3372 16.1443 10.1641V5.95211H21.3315C21.5171 5.95211 21.6739 6.1114 21.6739 6.29996V9.96587C21.5214 9.93345 21.3614 9.91398 21.1921 9.91093C21.1893 9.91088 21.1866 9.91088 21.1839 9.91088H19.9963H19.074H18.5427C18.5403 9.91088 18.5379 9.91088 18.5355 9.91093C17.9704 9.91983 17.68 10.18 17.536 10.3966C17.3123 10.7329 17.2916 11.1884 17.4774 11.6786C17.5207 11.793 17.5734 11.9013 17.6342 12.003H14.0797C13.316 12.003 12.6947 12.634 12.6947 13.4096C12.6947 13.5691 12.7209 13.7225 12.7692 13.8655H12.6447C11.8811 13.8655 11.2597 14.4965 11.2597 15.2721C11.2597 16.0477 11.8811 16.6788 12.6447 16.6788H12.7688C12.7208 16.8214 12.6946 16.9743 12.6946 17.1333C12.6946 17.8847 13.2765 18.5004 14.0062 18.5393C13.9577 18.6825 13.9314 18.836 13.9314 18.9958C13.9314 19.7714 14.5527 20.4025 15.3164 20.4025H21.1239C21.3239 20.4025 21.506 20.3776 21.6738 20.335V21.8267C21.6738 22.016 21.5169 22.1759 21.3313 22.1759H10.4737C10.5657 21.8433 10.6159 21.4931 10.6159 21.1311C10.6159 18.9986 8.90764 17.2636 6.80788 17.2636C6.42243 17.2636 6.05034 17.3226 5.69943 17.4313V13.8823C5.69943 13.6194 5.48957 13.4063 5.23068 13.4063C4.97179 13.4063 4.76193 13.6194 4.76193 13.8823V17.8718C3.70364 18.5596 3 19.7631 3 21.1312C3 23.2644 4.70826 25 6.80802 25C8.1891 25 9.40068 24.249 10.0684 23.128H21.3315C22.0372 23.128 22.6114 22.5443 22.6114 21.8268V19.8667C22.7149 19.7916 22.8139 19.7145 22.9098 19.6394C23.3238 19.3154 23.6813 19.0357 24.2505 19.0357H26.0073C26.5546 19.0357 27 18.584 27 18.0288V13.538C27 12.982 26.5546 12.5298 26.0072 12.5298ZM15.2068 9.30487L13.936 8.49762C13.7839 8.40112 13.5911 8.40108 13.4389 8.49757L12.1667 9.30515V5.95211H15.2068V9.30487ZM6.80802 24.0479C5.2252 24.0479 3.9375 22.7395 3.9375 21.1312C3.9375 19.5236 5.2252 18.2158 6.80802 18.2158C8.39085 18.2158 9.67855 19.5236 9.67855 21.1312C9.67855 22.7395 8.39085 24.0479 6.80802 24.0479ZM26.0625 18.0288C26.0625 18.058 26.0367 18.0835 26.0072 18.0835H24.2505C23.3619 18.0835 22.8177 18.5094 22.3375 18.8852C21.9341 19.201 21.6154 19.4504 21.1239 19.4504H15.3165C15.0697 19.4504 14.869 19.2465 14.869 18.9959C14.869 18.7452 15.0697 18.5413 15.3165 18.5413H16.8724C17.1313 18.5413 17.3412 18.3282 17.3412 18.0653C17.3412 17.8023 17.1313 17.5892 16.8724 17.5892H14.0797C13.8329 17.5892 13.6322 17.3847 13.6322 17.1333C13.6322 16.8827 13.833 16.6788 14.0797 16.6788H16.8724C17.1313 16.6788 17.3412 16.4657 17.3412 16.2028C17.3412 15.9398 17.1313 15.7267 16.8724 15.7267H12.6448C12.398 15.7267 12.1973 15.5228 12.1973 15.2722C12.1973 15.0215 12.398 14.8176 12.6448 14.8176H16.8724C17.1313 14.8176 17.3412 14.6045 17.3412 14.3416C17.3412 14.0786 17.1313 13.8655 16.8724 13.8655H14.0797C13.8329 13.8655 13.6322 13.661 13.6322 13.4096C13.6322 13.159 13.833 12.9552 14.0797 12.9552H19.3101H20.3274H21.007C21.2659 12.9552 21.4757 12.742 21.4757 12.4791C21.4757 12.2162 21.2659 12.003 21.007 12.003H20.3274H19.3101C18.8813 12.003 18.5055 11.7417 18.3525 11.337C18.2634 11.1017 18.2876 10.9676 18.313 10.9295C18.3384 10.8913 18.4299 10.8653 18.5467 10.863H19.9963H21.1795C21.97 10.8791 22.5232 11.4742 23.1089 12.1041C23.7215 12.7631 24.355 13.4445 25.3058 13.4815C25.3118 13.4818 25.3178 13.4819 25.3238 13.4819H26.0073C26.0372 13.4819 26.0625 13.5076 26.0625 13.5379L26.0625 18.0288Z" fill="#27AE60"/>
</svg>
