<svg width="31" height="30" viewBox="0 0 31 30" fill="none" xmlns="http://www.w3.org/2000/svg">
<path d="M21.725 11.25C20.0339 11.25 18.6568 9.84833 18.6568 8.125C18.6568 6.40167 20.0339 5 21.725 5C23.4163 5 24.7932 6.40167 24.7932 8.125C24.7932 9.84833 23.4163 11.25 21.725 11.25ZM21.725 6.25C20.7105 6.25 19.8841 7.09076 19.8841 8.125C19.8841 9.15924 20.7105 10 21.725 10C22.7396 10 23.5659 9.15924 23.5659 8.125C23.5659 7.09076 22.7396 6.25 21.725 6.25Z" fill="#27AE60"/>
<path d="M21.725 25C20.0339 25 18.6568 23.5983 18.6568 21.875C18.6568 20.1517 20.0339 18.75 21.725 18.75C23.4163 18.75 24.7932 20.1517 24.7932 21.875C24.7932 23.5983 23.4163 25 21.725 25ZM21.725 20C20.7105 20 19.8841 20.8408 19.8841 21.875C19.8841 22.9092 20.7105 23.75 21.725 23.75C22.7396 23.75 23.5659 22.9092 23.5659 21.875C23.5659 20.8408 22.7396 20 21.725 20Z" fill="#27AE60"/>
<path d="M9.8614 18.125C8.17015 18.125 6.79321 16.7233 6.79321 15C6.79321 13.2767 8.17015 11.875 9.8614 11.875C11.5527 11.875 12.9296 13.2767 12.9296 15C12.9296 16.7233 11.5527 18.125 9.8614 18.125ZM9.8614 13.125C8.84686 13.125 8.02049 13.9658 8.02049 15C8.02049 16.0342 8.84686 16.875 9.8614 16.875C10.8759 16.875 11.7023 16.0342 11.7023 15C11.7023 13.9658 10.8759 13.125 9.8614 13.125Z" fill="#27AE60"/>
<path d="M11.9977 14.3916C11.784 14.3916 11.5762 14.2782 11.4642 14.0767C11.2964 13.7767 11.3987 13.3949 11.6933 13.2241L19.2852 8.81573C19.5789 8.64331 19.9544 8.74829 20.1213 9.04919C20.2891 9.34918 20.1868 9.7308 19.8923 9.9017L12.3003 14.31C12.2046 14.3649 12.1007 14.3916 11.9977 14.3916Z" fill="#27AE60"/>
<path d="M19.5888 21.2666C19.4857 21.2666 19.3817 21.2399 19.286 21.1842L11.694 16.7758C11.3995 16.605 11.2973 16.2232 11.465 15.9233C11.6319 15.6225 12.0067 15.5183 12.3012 15.69L19.8931 20.0982C20.1876 20.2691 20.2899 20.6507 20.1223 20.9507C20.0093 21.1532 19.8015 21.2666 19.5888 21.2666Z" fill="#27AE60"/>
</svg>
