<svg xmlns="http://www.w3.org/2000/svg" width="17.842" height="18" viewBox="0 0 17.842 18">
	<defs><style>.a{fill:#fff;}</style></defs>
	<g>
		<path class="a" d="M14.484,7.547a.75.75,0,0,0,.75-.75V3.872a2.372,2.372,0,1,1,4.744,0V6.8a.75.75,0,0,0,1.5,0V3.872a3.872,3.872,0,1,0-7.743,0V6.8A.75.75,0,0,0,14.484,7.547Z" transform="translate(-8.663)"/>
		<path class="a" d="M17.756,15.631H13.775v.935a1.5,1.5,0,1,1-3,0v-.935H7.531v.935a1.5,1.5,0,1,1-3,0v-.935H.506A.28.28,0,0,0,.22,16L2.844,26.682a1.538,1.538,0,0,0,1.412,1.087h9.75a1.54,1.54,0,0,0,1.413-1.087L18.042,16A.28.28,0,0,0,17.756,15.631Z" transform="translate(-0.21 -9.769)"/>
		<path id="Path_59" data-name="Path 59" d="M-228.974,634.976h1.9v3.117h3.055v1.9h-3.055v3.055h-1.9v-3.055h-3.055v-2.106h3.055Z" transform="translate(237 -626)" fill="#3b823e"/>
	</g>
</svg>