<svg xmlns="http://www.w3.org/2000/svg" width="53" height="56" viewBox="0 0 53 56">
	<defs>
		<style>.a{fill:#af2822;}</style>
	</defs>
	<g transform="translate(-0.21)">
		<g transform="translate(0.21)">
			<g transform="translate(0)">
				<path class="a" d="M15.608,18.866a1.876,1.876,0,0,0,1.875-1.875V9.679a5.929,5.929,0,1,1,11.859,0v7.312a1.875,1.875,0,0,0,3.75,0V9.679a9.679,9.679,0,1,0-19.357,0v7.312A1.874,1.874,0,0,0,15.608,18.866Z" transform="translate(-1.056)"/>
				<path class="a" d="M44.073,15.631H34.12v2.338a3.75,3.75,0,1,1-7.5,0V15.631H18.513v2.338a3.75,3.75,0,1,1-7.5,0V15.631H.951a.7.7,0,0,0-.714.91L6.8,43.257a3.845,3.845,0,0,0,3.529,2.719H34.7a3.85,3.85,0,0,0,3.531-2.719l6.558-26.715A.7.7,0,0,0,44.073,15.631Z" transform="translate(-0.21 -0.978)"/>
			</g>
		</g>
	</g>
	<g style="transform: translate(25px, 30px) scale(0.5);">
	    <path
	       style="fill: #000;transform: translate(-1px, 0px) scale(1.1);opacity: 0.2;"
	       d="M 46 24 A 22 22 0 1 1  2,24 A 22 22 0 1 1  46 24 z" />
	    <path
	       style="fill:#ffffff;"
	       d="M 46 24 A 22 22 0 1 1  2,24 A 22 22 0 1 1  46 24 z" />
	    <path
	       style="stroke: #af2822; stroke-width: 6; stroke-linecap: round;"
	       d="M 16.221825,16.221825 L 31.778175,31.778175" />
	    <path
	       d="M 31.778175,16.221825 L 16.221825,31.778175"
	       style="stroke: #af2822; stroke-width: 6; stroke-linecap: round;" />
	  </g>
</svg>