<svg xmlns="http://www.w3.org/2000/svg" width="13.302" height="14.705" viewBox="0 0 13.302 14.705"><defs><style>.a{fill:#fff;}</style></defs><g transform="translate(-20.394)"><path class="a" d="M33.656,9.984l-3.572,4.647a.19.19,0,0,1-.3,0L26.211,9.984a.188.188,0,0,1-.039-.115.19.19,0,0,1,.259-.176l2.365.934V.723a.189.189,0,0,1,.19-.189h1.9a.189.189,0,0,1,.19.189v9.9l2.365-.934a.19.19,0,0,1,.22.292ZM27.879,4.95a.19.19,0,0,0,0-.23L24.306.074a.19.19,0,0,0-.3,0L20.433,4.72a.19.19,0,0,0,.22.292l2.365-.934v9.9a.189.189,0,0,0,.189.189h1.9a.19.19,0,0,0,.19-.189v-9.9l2.365.934A.191.191,0,0,0,27.879,4.95Z" transform="translate(0)"/></g></svg>