<svg width="47" height="47" viewBox="0 0 47 47" fill="none" xmlns="http://www.w3.org/2000/svg">
<g clip-path="url(#clip0)">
<path d="M34.4177 2.02466C29.8853 2.02505 25.7053 4.47075 23.485 8.42222C21.2647 4.47075 17.0847 2.02505 12.5523 2.02466C5.62016 2.02466 0 8.45464 0 15.3868C0 32.7981 23.485 44.9455 23.485 44.9455C23.485 44.9455 46.97 32.7981 46.97 15.3868C46.97 8.45464 41.3498 2.02466 34.4177 2.02466Z" fill="#FF6243"/>
<path d="M43.7309 15.3868C43.7309 8.97304 38.9174 3.00057 32.7077 2.14131C33.2743 2.06341 33.8457 2.02427 34.4179 2.02466C41.3501 2.02466 46.9702 8.45464 46.9702 15.3868C46.9702 32.7981 23.4852 44.9455 23.4852 44.9455C23.4852 44.9455 22.8778 44.6304 21.8656 44.0353C27.1714 40.915 43.7309 30.0092 43.7309 15.3868Z" fill="#FF5023"/>
</g>
<defs>
<clipPath id="clip0">
<rect width="46.97" height="46.97" fill="white"/>
</clipPath>
</defs>
</svg>
