<svg width="48" height="48" viewBox="0 0 48 48" fill="none" xmlns="http://www.w3.org/2000/svg">
<rect width="48" height="48" rx="24" fill="#1BC8FF"/>
<g clip-path="url(#clip0)">
<path d="M32.0001 19.5375C31.4126 19.8 30.7781 19.975 30.1156 20.053C30.7936 19.6465 31.3126 19.003 31.5591 18.2375C30.9246 18.6125 30.2216 18.8875 29.4746 19.0345C28.8746 18.397 28.0216 18 27.0776 18C25.2651 18 23.7961 19.469 23.7961 21.2815C23.7961 21.5375 23.8241 21.7875 23.8806 22.0285C21.1526 21.891 18.7336 20.5845 17.1151 18.5975C16.8336 19.082 16.6716 19.6475 16.6716 20.2475C16.6716 21.385 17.2496 22.391 18.1311 22.979C17.5936 22.9635 17.0876 22.8135 16.6436 22.5695C16.6436 22.582 16.6436 22.5975 16.6436 22.61C16.6436 24.2005 17.7751 25.529 19.2781 25.8285C19.0031 25.9035 18.7126 25.944 18.4126 25.944C18.2001 25.944 17.9971 25.922 17.7941 25.8845C18.2131 27.1875 19.4256 28.1375 20.8596 28.166C19.7346 29.047 18.3221 29.5725 16.7816 29.5725C16.5161 29.5725 16.2566 29.557 15.9971 29.5255C17.4536 30.46 19.1781 31.0005 21.0316 31.0005C27.0691 31.0005 30.3721 25.9975 30.3721 21.66C30.3721 21.5165 30.3691 21.3755 30.3626 21.235C31.0031 20.7755 31.5596 20.1975 32.0001 19.538V19.5375Z" fill="white"/>
</g>
<defs>
<clipPath id="clip0">
<rect width="16" height="16" fill="white" transform="translate(16 16)"/>
</clipPath>
</defs>
</svg>
