<svg width="37" height="37" viewBox="0 0 37 37" fill="none" xmlns="http://www.w3.org/2000/svg">
<circle cx="18.5" cy="18.5" r="18.5" fill="#D2EDD3"/>
<path d="M26.809 13.7051C26.5156 13.5729 26.1898 13.53 25.8721 13.5815C25.5544 13.633 25.2588 13.7767 25.0222 13.9948L22.9455 15.9266V14.5261C22.9455 13.7576 22.6402 13.0205 22.0968 12.4771C21.5534 11.9337 20.8163 11.6284 20.0478 11.6284H11.3548C10.5863 11.6284 9.84928 11.9337 9.30586 12.4771C8.76244 13.0205 8.45715 13.7576 8.45715 14.5261V22.2532C8.45715 23.0217 8.76244 23.7587 9.30586 24.3022C9.84928 24.8456 10.5863 25.1509 11.3548 25.1509H20.0478C20.8163 25.1509 21.5534 24.8456 22.0968 24.3022C22.6402 23.7587 22.9455 23.0217 22.9455 22.2532V20.8527L25.0318 22.7844C25.3389 23.0625 25.738 23.2172 26.1522 23.2191C26.3822 23.2185 26.6093 23.1692 26.8187 23.0742C27.1036 22.959 27.3476 22.7614 27.5197 22.5068C27.6917 22.2521 27.784 21.952 27.7846 21.6447V15.1346C27.7832 14.8262 27.6895 14.5252 27.5157 14.2705C27.3418 14.0157 27.0957 13.8188 26.809 13.7051Z" fill="#3B823E"/>
</svg>
