<svg xmlns="http://www.w3.org/2000/svg" width="76.154" height="19.462" viewBox="0 0 76.154 19.462"><defs><style>.a{fill:#139ad6;}.b{fill:#263b80;}.c{fill:#232c65;}</style></defs><g transform="translate(0 -187.6)"><path class="a" d="M353.607,221.2H349.5a.8.8,0,0,0-.6.484L347.2,232.321a.321.321,0,0,0,.363.363h2.176a.321.321,0,0,0,.363-.363l.484-3.022a.553.553,0,0,1,.6-.484h1.33q4.17,0,4.714-3.989a3.168,3.168,0,0,0-.484-2.659,4.875,4.875,0,0,0-3.143-.967m.484,3.989c-.242,1.451-1.33,1.451-2.418,1.451h-.725l.484-2.78c0-.121.121-.242.363-.242h.242c.725,0,1.451,0,1.813.484.242.121.242.484.242,1.088" transform="translate(-294.738 -28.523)"/><g transform="translate(22.846 192.677)"><path class="b" d="M157.607,221.2H153.5a.8.8,0,0,0-.6.484L151.2,232.321a.321.321,0,0,0,.363.363H153.5a.8.8,0,0,0,.6-.484l.484-2.9a.553.553,0,0,1,.6-.484h1.33q4.17,0,4.714-3.989a3.168,3.168,0,0,0-.484-2.659,4.646,4.646,0,0,0-3.143-.967m.484,3.989c-.242,1.451-1.33,1.451-2.418,1.451h-.6l.484-2.78c0-.121.121-.242.363-.242h.242c.725,0,1.451,0,1.813.484a1.3,1.3,0,0,1,.121,1.088" transform="translate(-151.2 -221.2)"/><path class="b" d="M223.282,245.442h-1.934c-.121,0-.363.121-.363.242l-.121.6-.121-.242a2.844,2.844,0,0,0-2.3-.846,4.645,4.645,0,0,0-4.473,3.989,3.6,3.6,0,0,0,.725,3.022,3.046,3.046,0,0,0,2.538.967,3.864,3.864,0,0,0,2.78-1.088l-.121.6a.321.321,0,0,0,.363.363h1.813a.8.8,0,0,0,.6-.483l1.088-6.769c-.121-.121-.363-.363-.484-.363m-2.78,3.868a2.338,2.338,0,0,1-2.3,1.934,1.933,1.933,0,0,1-1.33-.484,2.578,2.578,0,0,1-.363-1.451,2.156,2.156,0,0,1,3.506-1.451,2.11,2.11,0,0,1,.484,1.451" transform="translate(-204.425 -241.574)"/></g><path class="a" d="M418.482,245.442h-1.934c-.121,0-.363.121-.363.242l-.121.6-.121-.242a2.844,2.844,0,0,0-2.3-.846,4.645,4.645,0,0,0-4.473,3.989,3.6,3.6,0,0,0,.725,3.022,3.046,3.046,0,0,0,2.538.967,3.864,3.864,0,0,0,2.78-1.088l-.121.6a.321.321,0,0,0,.363.363h1.813a.8.8,0,0,0,.6-.483l1.088-6.769c-.121-.121-.242-.363-.484-.363m-2.78,3.868a2.338,2.338,0,0,1-2.3,1.934,1.933,1.933,0,0,1-1.33-.484,2.578,2.578,0,0,1-.363-1.451,2.156,2.156,0,0,1,3.506-1.451,1.387,1.387,0,0,1,.483,1.451" transform="translate(-347.284 -48.897)"/><path class="b" d="M293.308,246.8h-2.055a.628.628,0,0,0-.484.242l-2.659,4.11-1.209-3.868a.558.558,0,0,0-.6-.363h-1.934c-.242,0-.363.242-.363.484l2.176,6.407-2.055,2.9c-.121.242,0,.6.242.6H286.3a.628.628,0,0,0,.484-.242l6.648-9.549c.363-.363.121-.725-.121-.725" transform="translate(-241.088 -50.255)"/><path class="a" d="M476.892,221.975,475.2,232.855a.321.321,0,0,0,.363.363h1.692a.8.8,0,0,0,.6-.484l1.692-10.637a.321.321,0,0,0-.363-.363h-1.934c-.121-.121-.242,0-.363.242" transform="translate(-403.398 -28.936)"/><path class="b" d="M13.9,189.051c-.846-.967-2.418-1.451-4.593-1.451H3.264a1.037,1.037,0,0,0-.846.725L0,204.161a.553.553,0,0,0,.484.6H4.231l.967-5.923v.242a1.037,1.037,0,0,1,.846-.725H7.857c3.506,0,6.165-1.451,7.011-5.44v-.363h0a4.222,4.222,0,0,0-.967-3.506" transform="translate(0 0)"/><path class="a" d="M36.479,220.4h0v.363c-.846,4.11-3.506,5.44-7.011,5.44H27.655a1.037,1.037,0,0,0-.846.725L25.6,234.3a.443.443,0,0,0,.484.484h3.143a.677.677,0,0,0,.725-.6v-.121l.6-3.747v-.242a.677.677,0,0,1,.725-.6h.484c3.022,0,5.44-1.209,6.044-4.835A4.444,4.444,0,0,0,37.2,221a1.238,1.238,0,0,0-.725-.6" transform="translate(-21.732 -27.844)"/><path class="c" d="M43.1,215.963c-.121,0-.242-.121-.363-.121a.444.444,0,0,1-.363-.121,6.386,6.386,0,0,0-1.571-.121H36.092a.444.444,0,0,0-.363.121.665.665,0,0,0-.363.6l-.967,6.286v.242a1.037,1.037,0,0,1,.846-.725h1.813c3.506,0,6.165-1.451,7.011-5.44a.444.444,0,0,1,.121-.363c-.242-.121-.363-.242-.6-.242-.363-.121-.363-.121-.484-.121" transform="translate(-29.202 -23.769)"/></g></svg>