<svg xmlns="http://www.w3.org/2000/svg" width="41" height="12.43" viewBox="0 0 41 12.43"><defs><style>.a{fill:#3c58bf;}.b{fill:#293688;}.c{fill:#ffbc00;}.d{fill:#f7981d;}.e{fill:#ed7c00;}.f{fill:#051244;}</style></defs><g transform="translate(0 -175.6)"><path class="a" d="M184.8,192.114l2.083-11.714h3.254l-2.017,11.714Z" transform="translate(-169.767 -4.409)"/><path class="b" d="M184.8,192.114l2.668-11.714h2.668l-2.017,11.714Z" transform="translate(-169.767 -4.409)"/><path class="a" d="M257.957,176.121a8.254,8.254,0,0,0-2.994-.521c-3.254,0-5.6,1.627-5.6,3.97,0,1.757,1.627,2.668,2.929,3.254s1.692.976,1.692,1.5c0,.781-1.041,1.171-1.952,1.171a7.074,7.074,0,0,1-3.124-.651l-.456-.2L248,187.314a10.552,10.552,0,0,0,3.71.651c3.449,0,5.727-1.627,5.727-4.1,0-1.367-.846-2.408-2.8-3.254-1.171-.586-1.887-.911-1.887-1.5,0-.521.586-1.041,1.887-1.041a5.969,5.969,0,0,1,2.473.456l.325.13.521-2.538Z" transform="translate(-227.825)"/><path class="b" d="M257.957,176.121a8.254,8.254,0,0,0-2.994-.521c-3.254,0-5.011,1.627-5.011,3.97a3.4,3.4,0,0,0,2.343,3.254c1.3.586,1.692.976,1.692,1.5,0,.781-1.041,1.171-1.952,1.171a7.074,7.074,0,0,1-3.124-.651l-.456-.2L248,187.314a10.552,10.552,0,0,0,3.71.651c3.449,0,5.727-1.627,5.727-4.1,0-1.367-.846-2.408-2.8-3.254-1.171-.586-1.887-.911-1.887-1.5,0-.521.586-1.041,1.887-1.041a5.969,5.969,0,0,1,2.473.456l.325.13.521-2.538Z" transform="translate(-227.825)"/><path class="a" d="M364.973,180.4c-.781,0-1.367.065-1.692.846L358.4,192.114h3.514l.651-1.952h4.165l.391,1.952h3.124L367.511,180.4Zm-1.5,7.81c.2-.586,1.3-3.449,1.3-3.449s.26-.716.456-1.171l.2,1.106s.651,2.929.781,3.579h-2.733Z" transform="translate(-329.244 -4.409)"/><path class="b" d="M365.754,180.4c-.781,0-1.367.065-1.692.846L358.4,192.114h3.514l.651-1.952h4.165l.39,1.952h3.124L367.511,180.4Zm-2.278,7.81c.26-.651,1.3-3.449,1.3-3.449s.26-.716.456-1.171l.2,1.106s.651,2.929.781,3.579h-2.733Z" transform="translate(-329.244 -4.409)"/><path class="a" d="M56.081,189.335l-.325-1.692A9.434,9.434,0,0,0,51.2,182.5l2.929,10.413h3.514L62.914,181.2H59.4Z" transform="translate(-47.035 -5.144)"/><path class="b" d="M56.081,189.335l-.325-1.692A9.434,9.434,0,0,0,51.2,182.5l2.929,10.413h3.514L62.914,181.2H60.051Z" transform="translate(-47.035 -5.144)"/><path class="c" d="M0,180.4l.586.13c4.165.976,7.029,3.449,8.135,6.378l-1.171-5.532c-.2-.781-.781-.976-1.5-.976Z" transform="translate(0 -4.409)"/><path class="d" d="M0,180.4H0c4.165.976,7.614,3.514,8.721,6.443l-1.106-4.621a1.589,1.589,0,0,0-1.562-1.237Z" transform="translate(0 -4.409)"/><path class="e" d="M0,180.4H0c4.165.976,7.614,3.514,8.721,6.443L7.94,184.3a2.3,2.3,0,0,0-1.367-1.887Z" transform="translate(0 -4.409)"/><g transform="translate(4.23 177.292)"><path class="f" d="M60.07,202.908,57.857,200.7l-1.041,2.473-.26-1.627A9.434,9.434,0,0,0,52,196.4l2.929,10.413h3.514Z" transform="translate(-52 -196.4)"/><path class="f" d="M188.119,292.063l-2.8-2.863-.521,2.863Z" transform="translate(-173.997 -281.651)"/><path class="f" d="M253.662,274.8h0c.26.26.391.456.325.716,0,.781-1.041,1.171-1.952,1.171a7.074,7.074,0,0,1-3.124-.651l-.456-.2L248,278.51a10.553,10.553,0,0,0,3.71.651,6.444,6.444,0,0,0,4.751-1.627Z" transform="translate(-232.056 -268.422)"/><path class="f" d="M364,228.125h3.059l.651-1.952h4.165l.39,1.952h3.124l-1.106-4.751-3.9-3.775.2,1.041s.651,2.929.781,3.579h-2.733c.26-.651,1.3-3.449,1.3-3.449s.26-.716.456-1.171" transform="translate(-338.619 -217.713)"/></g></g></svg>