<svg width="44" height="44" viewBox="0 0 44 44" fill="none" xmlns="http://www.w3.org/2000/svg">
<circle cx="22" cy="22" r="22" fill="#FFE192"/>
<path fill-rule="evenodd" clip-rule="evenodd" d="M19.375 17.375H24.625C24.625 15.9253 23.4497 14.75 22 14.75C20.5503 14.75 19.375 15.9253 19.375 17.375ZM17.6251 17.3982C17.625 17.3905 17.625 17.3827 17.625 17.375C17.625 14.9588 19.5838 13 22 13C24.4162 13 26.375 14.9588 26.375 17.375C26.375 17.3827 26.375 17.3905 26.3749 17.3982C27.8548 17.5827 29 18.8451 29 20.375V28.375C29 30.0319 27.6569 31.375 26 31.375H18C16.3431 31.375 15 30.0319 15 28.375V20.375C15 18.8451 16.1452 17.5827 17.6251 17.3982Z" fill="#DA8924"/>
<circle cx="18.5" cy="19.125" r="0.875" fill="#FFE192"/>
<circle cx="25.5" cy="19.125" r="0.875" fill="#FFE192"/>
</svg>
