<svg width="44" height="44" viewBox="0 0 44 44" fill="none" xmlns="http://www.w3.org/2000/svg">
<circle cx="22" cy="22" r="22" fill="#FCDFDB"/>
<path d="M30.8301 17.093C30.5421 16.4262 30.1269 15.8219 29.6076 15.3141C29.088 14.8047 28.4753 14.3999 27.8029 14.1217C27.1057 13.8321 26.3579 13.6838 25.6029 13.6856C24.5438 13.6856 23.5104 13.9756 22.6123 14.5235C22.3975 14.6545 22.1934 14.7985 22 14.9553C21.8066 14.7985 21.6025 14.6545 21.3877 14.5235C20.4896 13.9756 19.4563 13.6856 18.3971 13.6856C17.6344 13.6856 16.8953 13.8317 16.1971 14.1217C15.5225 14.401 14.9145 14.8027 14.3924 15.3141C13.8725 15.8214 13.4571 16.4258 13.1699 17.093C12.8713 17.7869 12.7188 18.5238 12.7188 19.2822C12.7188 19.9977 12.8648 20.7432 13.1549 21.5016C13.3977 22.1354 13.7457 22.7928 14.1904 23.4567C14.8951 24.5072 15.8641 25.6029 17.0672 26.7137C19.0609 28.5549 21.0354 29.8268 21.1191 29.8783L21.6283 30.2049C21.8539 30.3488 22.1439 30.3488 22.3695 30.2049L22.8787 29.8783C22.9625 29.8246 24.9348 28.5549 26.9307 26.7137C28.1338 25.6029 29.1027 24.5072 29.8074 23.4567C30.2522 22.7928 30.6023 22.1354 30.843 21.5016C31.133 20.7432 31.2791 19.9977 31.2791 19.2822C31.2813 18.5238 31.1287 17.7869 30.8301 17.093V17.093Z" fill="#EB5757"/>
</svg>
